%TF.GenerationSoftware,KiCad,Pcbnew,9.0.7*%
%TF.CreationDate,2026-03-29T18:14:53+05:30*%
%TF.ProjectId,chopsticks,63686f70-7374-4696-936b-732e6b696361,rev?*%
%TF.SameCoordinates,Original*%
%TF.FileFunction,Copper,L2,Bot*%
%TF.FilePolarity,Positive*%
%FSLAX46Y46*%
G04 Gerber Fmt 4.6, Leading zero omitted, Abs format (unit mm)*
G04 Created by KiCad (PCBNEW 9.0.7) date 2026-03-29 18:14:53*
%MOMM*%
%LPD*%
G01*
G04 APERTURE LIST*
%TA.AperFunction,ComponentPad*%
%ADD10C,1.400000*%
%TD*%
%TA.AperFunction,ComponentPad*%
%ADD11C,1.524000*%
%TD*%
%TA.AperFunction,ViaPad*%
%ADD12C,0.600000*%
%TD*%
%TA.AperFunction,Conductor*%
%ADD13C,0.200000*%
%TD*%
G04 APERTURE END LIST*
D10*
%TO.P,DS1,1,SDA*%
%TO.N,Net-(DS1-SDA)*%
X147710000Y-80190000D03*
%TO.P,DS1,2,SCL*%
%TO.N,Net-(DS1-SCL)*%
X147710000Y-82730000D03*
%TO.P,DS1,3,VCC*%
%TO.N,Net-(DS1-VCC)*%
X147710000Y-85270000D03*
%TO.P,DS1,4,GND*%
%TO.N,Net-(DS1-GND)*%
X147710000Y-87810000D03*
%TD*%
D11*
%TO.P,U1,1,P26_A0_D0*%
%TO.N,Net-(U1-P26_A0_D0)*%
X111380000Y-82620000D03*
%TO.P,U1,2,P27_A1_D1*%
%TO.N,Net-(U1-P27_A1_D1)*%
X113920000Y-82620000D03*
%TO.P,U1,3,P28_A2_D2*%
%TO.N,Net-(U1-P28_A2_D2)*%
X116460000Y-82620000D03*
%TO.P,U1,4,P29_A3_D3*%
%TO.N,Net-(U1-P29_A3_D3)*%
X119000000Y-82620000D03*
%TO.P,U1,5,P6_SDA_D4*%
%TO.N,Net-(DS1-SDA)*%
X121540000Y-82620000D03*
%TO.P,U1,6,P7_SCL_D5*%
%TO.N,Net-(DS1-SCL)*%
X124080000Y-82620000D03*
%TO.P,U1,7,P0_D6_TX*%
%TO.N,Net-(U1-P0_D6_TX)*%
X126620000Y-82620000D03*
%TO.P,U1,8,P1_D7_RX*%
%TO.N,Net-(U1-P1_D7_RX)*%
X126620000Y-67380000D03*
%TO.P,U1,9,P2_D8_SCK*%
%TO.N,Net-(U1-P2_D8_SCK)*%
X124080000Y-67380000D03*
%TO.P,U1,10,P4_D9_MISO*%
%TO.N,unconnected-(U1-P4_D9_MISO-Pad10)*%
X121540000Y-67380000D03*
%TO.P,U1,11,P3_D10_MOSI*%
%TO.N,unconnected-(U1-P3_D10_MOSI-Pad11)*%
X119000000Y-67380000D03*
%TO.P,U1,12,3V3*%
%TO.N,unconnected-(U1-3V3-Pad12)*%
X116460000Y-67380000D03*
%TO.P,U1,13,GND*%
%TO.N,Net-(DS1-GND)*%
X113920000Y-67380000D03*
%TO.P,U1,14,VBUS*%
%TO.N,Net-(DS1-VCC)*%
X111380000Y-67380000D03*
%TD*%
D12*
%TO.N,Net-(DS1-SDA)*%
X147700000Y-76050000D03*
%TO.N,Net-(U1-P2_D8_SCK)*%
X197000000Y-112600000D03*
%TO.N,Net-(U1-P1_D7_RX)*%
X176000000Y-111250000D03*
%TD*%
D13*
%TO.N,Net-(DS1-SDA)*%
X147700000Y-76050000D02*
X147710000Y-76060000D01*
X147710000Y-76060000D02*
X147710000Y-80190000D01*
%TO.N,Net-(DS1-VCC)*%
X111380000Y-67380000D02*
X114761000Y-63999000D01*
X126439000Y-63999000D02*
X147710000Y-85270000D01*
X114761000Y-63999000D02*
X126439000Y-63999000D01*
%TO.N,Net-(U1-P2_D8_SCK)*%
X197000000Y-112600000D02*
X163350000Y-112600000D01*
X124080000Y-73330000D02*
X124080000Y-67380000D01*
X163350000Y-112600000D02*
X124080000Y-73330000D01*
%TO.N,Net-(U1-P1_D7_RX)*%
X176000000Y-111250000D02*
X165350000Y-111250000D01*
X126620000Y-72520000D02*
X126620000Y-67380000D01*
X165350000Y-111250000D02*
X126620000Y-72520000D01*
%TD*%
M02*
