%TF.GenerationSoftware,KiCad,Pcbnew,9.0.7*%
%TF.CreationDate,2026-03-29T18:14:52+05:30*%
%TF.ProjectId,chopsticks,63686f70-7374-4696-936b-732e6b696361,rev?*%
%TF.SameCoordinates,Original*%
%TF.FileFunction,Copper,L1,Top*%
%TF.FilePolarity,Positive*%
%FSLAX46Y46*%
G04 Gerber Fmt 4.6, Leading zero omitted, Abs format (unit mm)*
G04 Created by KiCad (PCBNEW 9.0.7) date 2026-03-29 18:14:52*
%MOMM*%
%LPD*%
G01*
G04 APERTURE LIST*
G04 Aperture macros list*
%AMRoundRect*
0 Rectangle with rounded corners*
0 $1 Rounding radius*
0 $2 $3 $4 $5 $6 $7 $8 $9 X,Y pos of 4 corners*
0 Add a 4 corners polygon primitive as box body*
4,1,4,$2,$3,$4,$5,$6,$7,$8,$9,$2,$3,0*
0 Add four circle primitives for the rounded corners*
1,1,$1+$1,$2,$3*
1,1,$1+$1,$4,$5*
1,1,$1+$1,$6,$7*
1,1,$1+$1,$8,$9*
0 Add four rect primitives between the rounded corners*
20,1,$1+$1,$2,$3,$4,$5,0*
20,1,$1+$1,$4,$5,$6,$7,0*
20,1,$1+$1,$6,$7,$8,$9,0*
20,1,$1+$1,$8,$9,$2,$3,0*%
%AMOutline5P*
0 Free polygon, 5 corners , with rotation*
0 The origin of the aperture is its center*
0 number of corners: always 5*
0 $1 to $10 corner X, Y*
0 $11 Rotation angle, in degrees counterclockwise*
0 create outline with 5 corners*
4,1,5,$1,$2,$3,$4,$5,$6,$7,$8,$9,$10,$1,$2,$11*%
%AMOutline6P*
0 Free polygon, 6 corners , with rotation*
0 The origin of the aperture is its center*
0 number of corners: always 6*
0 $1 to $12 corner X, Y*
0 $13 Rotation angle, in degrees counterclockwise*
0 create outline with 6 corners*
4,1,6,$1,$2,$3,$4,$5,$6,$7,$8,$9,$10,$11,$12,$1,$2,$13*%
%AMOutline7P*
0 Free polygon, 7 corners , with rotation*
0 The origin of the aperture is its center*
0 number of corners: always 7*
0 $1 to $14 corner X, Y*
0 $15 Rotation angle, in degrees counterclockwise*
0 create outline with 7 corners*
4,1,7,$1,$2,$3,$4,$5,$6,$7,$8,$9,$10,$11,$12,$13,$14,$1,$2,$15*%
%AMOutline8P*
0 Free polygon, 8 corners , with rotation*
0 The origin of the aperture is its center*
0 number of corners: always 8*
0 $1 to $16 corner X, Y*
0 $17 Rotation angle, in degrees counterclockwise*
0 create outline with 8 corners*
4,1,8,$1,$2,$3,$4,$5,$6,$7,$8,$9,$10,$11,$12,$13,$14,$15,$16,$1,$2,$17*%
G04 Aperture macros list end*
%TA.AperFunction,SMDPad,CuDef*%
%ADD10C,16.000000*%
%TD*%
%TA.AperFunction,ComponentPad*%
%ADD11C,1.400000*%
%TD*%
%TA.AperFunction,SMDPad,CuDef*%
%ADD12Outline8P,-7.000000X4.200000X-4.200000X7.000000X4.200000X7.000000X7.000000X4.200000X7.000000X-4.200000X4.200000X-7.000000X-4.200000X-7.000000X-7.000000X-4.200000X0.000000*%
%TD*%
%TA.AperFunction,SMDPad,CuDef*%
%ADD13RoundRect,0.152400X-0.609600X1.063600X-0.609600X-1.063600X0.609600X-1.063600X0.609600X1.063600X0*%
%TD*%
%TA.AperFunction,ComponentPad*%
%ADD14C,1.524000*%
%TD*%
%TA.AperFunction,SMDPad,CuDef*%
%ADD15RoundRect,0.152400X0.609600X-1.063600X0.609600X1.063600X-0.609600X1.063600X-0.609600X-1.063600X0*%
%TD*%
%TA.AperFunction,ViaPad*%
%ADD16C,0.600000*%
%TD*%
%TA.AperFunction,Conductor*%
%ADD17C,0.200000*%
%TD*%
G04 APERTURE END LIST*
D10*
%TO.P,TP2,1,1*%
%TO.N,Net-(U1-P27_A1_D1)*%
X165500000Y-65950000D03*
%TD*%
D11*
%TO.P,DS1,1,SDA*%
%TO.N,Net-(DS1-SDA)*%
X147710000Y-80190000D03*
%TO.P,DS1,2,SCL*%
%TO.N,Net-(DS1-SCL)*%
X147710000Y-82730000D03*
%TO.P,DS1,3,VCC*%
%TO.N,Net-(DS1-VCC)*%
X147710000Y-85270000D03*
%TO.P,DS1,4,GND*%
%TO.N,Net-(DS1-GND)*%
X147710000Y-87810000D03*
%TD*%
D10*
%TO.P,TP3,1,1*%
%TO.N,Net-(U1-P28_A2_D2)*%
X134000000Y-102000000D03*
%TD*%
%TO.P,TP4,1,1*%
%TO.N,Net-(U1-P29_A3_D3)*%
X155000000Y-102000000D03*
%TD*%
D12*
%TO.P,TP5,1,1*%
%TO.N,Net-(U1-P0_D6_TX)*%
X186500000Y-66000000D03*
%TD*%
D10*
%TO.P,TP1,1,1*%
%TO.N,Net-(U1-P26_A0_D0)*%
X144500000Y-66000000D03*
%TD*%
D12*
%TO.P,TP7,1,1*%
%TO.N,Net-(U1-P1_D7_RX)*%
X176000000Y-102000000D03*
%TD*%
%TO.P,TP6,1,1*%
%TO.N,Net-(U1-P2_D8_SCK)*%
X197000000Y-102000000D03*
%TD*%
D13*
%TO.P,U1,1,P26_A0_D0*%
%TO.N,Net-(U1-P26_A0_D0)*%
X111380000Y-83455000D03*
D14*
X111380000Y-82620000D03*
D13*
%TO.P,U1,2,P27_A1_D1*%
%TO.N,Net-(U1-P27_A1_D1)*%
X113920000Y-83455000D03*
D14*
X113920000Y-82620000D03*
D13*
%TO.P,U1,3,P28_A2_D2*%
%TO.N,Net-(U1-P28_A2_D2)*%
X116460000Y-83455000D03*
D14*
X116460000Y-82620000D03*
D13*
%TO.P,U1,4,P29_A3_D3*%
%TO.N,Net-(U1-P29_A3_D3)*%
X119000000Y-83455000D03*
D14*
X119000000Y-82620000D03*
D13*
%TO.P,U1,5,P6_SDA_D4*%
%TO.N,Net-(DS1-SDA)*%
X121540000Y-83455000D03*
D14*
X121540000Y-82620000D03*
D13*
%TO.P,U1,6,P7_SCL_D5*%
%TO.N,Net-(DS1-SCL)*%
X124080000Y-83455000D03*
D14*
X124080000Y-82620000D03*
D13*
%TO.P,U1,7,P0_D6_TX*%
%TO.N,Net-(U1-P0_D6_TX)*%
X126620000Y-83455000D03*
D14*
X126620000Y-82620000D03*
%TO.P,U1,8,P1_D7_RX*%
%TO.N,Net-(U1-P1_D7_RX)*%
X126620000Y-67380000D03*
D15*
X126620000Y-66545000D03*
D14*
%TO.P,U1,9,P2_D8_SCK*%
%TO.N,Net-(U1-P2_D8_SCK)*%
X124080000Y-67380000D03*
D15*
X124080000Y-66545000D03*
D14*
%TO.P,U1,10,P4_D9_MISO*%
%TO.N,unconnected-(U1-P4_D9_MISO-Pad10)*%
X121540000Y-67380000D03*
D15*
X121540000Y-66545000D03*
D14*
%TO.P,U1,11,P3_D10_MOSI*%
%TO.N,unconnected-(U1-P3_D10_MOSI-Pad11)*%
X119000000Y-67380000D03*
D15*
X119000000Y-66545000D03*
D14*
%TO.P,U1,12,3V3*%
%TO.N,unconnected-(U1-3V3-Pad12)*%
X116460000Y-67380000D03*
D15*
X116460000Y-66545000D03*
D14*
%TO.P,U1,13,GND*%
%TO.N,Net-(DS1-GND)*%
X113920000Y-67380000D03*
D15*
X113920000Y-66545000D03*
D14*
%TO.P,U1,14,VBUS*%
%TO.N,Net-(DS1-VCC)*%
X111380000Y-67380000D03*
D15*
X111380000Y-66545000D03*
%TD*%
D16*
%TO.N,Net-(DS1-SDA)*%
X147700000Y-76050000D03*
%TO.N,Net-(U1-P2_D8_SCK)*%
X197000000Y-112600000D03*
%TO.N,Net-(U1-P1_D7_RX)*%
X176000000Y-111250000D03*
%TD*%
D17*
%TO.N,Net-(DS1-SDA)*%
X147700000Y-76050000D02*
X147650000Y-76000000D01*
X147650000Y-76000000D02*
X128160000Y-76000000D01*
X128160000Y-76000000D02*
X121540000Y-82620000D01*
%TO.N,Net-(DS1-SCL)*%
X124080000Y-83455000D02*
X125775000Y-85150000D01*
X125775000Y-85150000D02*
X145290000Y-85150000D01*
X145290000Y-85150000D02*
X147710000Y-82730000D01*
%TO.N,Net-(U1-P26_A0_D0)*%
X137600000Y-72900000D02*
X144500000Y-66000000D01*
X121100000Y-72900000D02*
X137600000Y-72900000D01*
X111380000Y-82620000D02*
X121100000Y-72900000D01*
%TO.N,Net-(U1-P27_A1_D1)*%
X122225000Y-75150000D02*
X156300000Y-75150000D01*
X156300000Y-75150000D02*
X165500000Y-65950000D01*
X113920000Y-83455000D02*
X122225000Y-75150000D01*
%TO.N,Net-(U1-P28_A2_D2)*%
X116460000Y-84460000D02*
X134000000Y-102000000D01*
X116460000Y-83455000D02*
X116460000Y-84460000D01*
%TO.N,Net-(U1-P29_A3_D3)*%
X145150000Y-92150000D02*
X155000000Y-102000000D01*
X127695000Y-92150000D02*
X145150000Y-92150000D01*
X119000000Y-83455000D02*
X127695000Y-92150000D01*
%TO.N,Net-(U1-P0_D6_TX)*%
X126620000Y-82620000D02*
X132440000Y-76800000D01*
X175700000Y-76800000D02*
X186500000Y-66000000D01*
X132440000Y-76800000D02*
X175700000Y-76800000D01*
%TO.N,Net-(U1-P2_D8_SCK)*%
X197000000Y-112600000D02*
X197000000Y-102000000D01*
%TO.N,Net-(U1-P1_D7_RX)*%
X176000000Y-111250000D02*
X176000000Y-102000000D01*
%TD*%
%TA.AperFunction,Conductor*%
%TO.N,Net-(DS1-GND)*%
G36*
X203502702Y-51500617D02*
G01*
X203886771Y-51517386D01*
X203897506Y-51518326D01*
X204275971Y-51568152D01*
X204286597Y-51570025D01*
X204659284Y-51652648D01*
X204669710Y-51655442D01*
X205033765Y-51770227D01*
X205043911Y-51773920D01*
X205396578Y-51920000D01*
X205406369Y-51924566D01*
X205744942Y-52100816D01*
X205754310Y-52106224D01*
X206076244Y-52311318D01*
X206085105Y-52317523D01*
X206387930Y-52549889D01*
X206396217Y-52556843D01*
X206677635Y-52814715D01*
X206685284Y-52822364D01*
X206943156Y-53103782D01*
X206950110Y-53112069D01*
X207182476Y-53414894D01*
X207188681Y-53423755D01*
X207393775Y-53745689D01*
X207399183Y-53755057D01*
X207575430Y-54093623D01*
X207580002Y-54103427D01*
X207726075Y-54456078D01*
X207729775Y-54466244D01*
X207844554Y-54830278D01*
X207847354Y-54840727D01*
X207929971Y-55213389D01*
X207931849Y-55224042D01*
X207981671Y-55602473D01*
X207982614Y-55613249D01*
X207999382Y-55997297D01*
X207999500Y-56002706D01*
X207999500Y-111997293D01*
X207999382Y-112002702D01*
X207982614Y-112386750D01*
X207981671Y-112397526D01*
X207931849Y-112775957D01*
X207929971Y-112786610D01*
X207847354Y-113159272D01*
X207844554Y-113169721D01*
X207729775Y-113533755D01*
X207726075Y-113543921D01*
X207580002Y-113896572D01*
X207575430Y-113906376D01*
X207399183Y-114244942D01*
X207393775Y-114254310D01*
X207188681Y-114576244D01*
X207182476Y-114585105D01*
X206950110Y-114887930D01*
X206943156Y-114896217D01*
X206685284Y-115177635D01*
X206677635Y-115185284D01*
X206396217Y-115443156D01*
X206387930Y-115450110D01*
X206085105Y-115682476D01*
X206076244Y-115688681D01*
X205754310Y-115893775D01*
X205744942Y-115899183D01*
X205406376Y-116075430D01*
X205396572Y-116080002D01*
X205043921Y-116226075D01*
X205033755Y-116229775D01*
X204669721Y-116344554D01*
X204659272Y-116347354D01*
X204286610Y-116429971D01*
X204275957Y-116431849D01*
X203897526Y-116481671D01*
X203886750Y-116482614D01*
X203502703Y-116499382D01*
X203497294Y-116499500D01*
X113502706Y-116499500D01*
X113497297Y-116499382D01*
X113113249Y-116482614D01*
X113102473Y-116481671D01*
X112724042Y-116431849D01*
X112713389Y-116429971D01*
X112340727Y-116347354D01*
X112330278Y-116344554D01*
X111966244Y-116229775D01*
X111956078Y-116226075D01*
X111603427Y-116080002D01*
X111593623Y-116075430D01*
X111255057Y-115899183D01*
X111245689Y-115893775D01*
X110923755Y-115688681D01*
X110914894Y-115682476D01*
X110612069Y-115450110D01*
X110603782Y-115443156D01*
X110322364Y-115185284D01*
X110314715Y-115177635D01*
X110056843Y-114896217D01*
X110049889Y-114887930D01*
X109817523Y-114585105D01*
X109811318Y-114576244D01*
X109606224Y-114254310D01*
X109600816Y-114244942D01*
X109424569Y-113906376D01*
X109419997Y-113896572D01*
X109273924Y-113543921D01*
X109270224Y-113533755D01*
X109155442Y-113169710D01*
X109152648Y-113159284D01*
X109070025Y-112786597D01*
X109068152Y-112775971D01*
X109018326Y-112397506D01*
X109017386Y-112386771D01*
X109000618Y-112002702D01*
X109000500Y-111997293D01*
X109000500Y-82325458D01*
X110117500Y-82325458D01*
X110117500Y-84584541D01*
X110120412Y-84621546D01*
X110120413Y-84621552D01*
X110166434Y-84779954D01*
X110166435Y-84779957D01*
X110250405Y-84921943D01*
X110250412Y-84921952D01*
X110367047Y-85038587D01*
X110367056Y-85038594D01*
X110406287Y-85061795D01*
X110509041Y-85122564D01*
X110549822Y-85134412D01*
X110667447Y-85168586D01*
X110667450Y-85168586D01*
X110667452Y-85168587D01*
X110704466Y-85171500D01*
X110704474Y-85171500D01*
X112055526Y-85171500D01*
X112055534Y-85171500D01*
X112092548Y-85168587D01*
X112092550Y-85168586D01*
X112092552Y-85168586D01*
X112139755Y-85154872D01*
X112250959Y-85122564D01*
X112392947Y-85038592D01*
X112509592Y-84921947D01*
X112543268Y-84865003D01*
X112594337Y-84817321D01*
X112663079Y-84804817D01*
X112727668Y-84831462D01*
X112756732Y-84865004D01*
X112790406Y-84921944D01*
X112790412Y-84921952D01*
X112907047Y-85038587D01*
X112907056Y-85038594D01*
X112946287Y-85061795D01*
X113049041Y-85122564D01*
X113089822Y-85134412D01*
X113207447Y-85168586D01*
X113207450Y-85168586D01*
X113207452Y-85168587D01*
X113244466Y-85171500D01*
X113244474Y-85171500D01*
X114595526Y-85171500D01*
X114595534Y-85171500D01*
X114632548Y-85168587D01*
X114632550Y-85168586D01*
X114632552Y-85168586D01*
X114679755Y-85154872D01*
X114790959Y-85122564D01*
X114932947Y-85038592D01*
X115049592Y-84921947D01*
X115083268Y-84865003D01*
X115134337Y-84817321D01*
X115203079Y-84804817D01*
X115267668Y-84831462D01*
X115296732Y-84865004D01*
X115330406Y-84921944D01*
X115330412Y-84921952D01*
X115447047Y-85038587D01*
X115447056Y-85038594D01*
X115486287Y-85061795D01*
X115589041Y-85122564D01*
X115629822Y-85134412D01*
X115747447Y-85168586D01*
X115747450Y-85168586D01*
X115747452Y-85168587D01*
X115784466Y-85171500D01*
X116270903Y-85171500D01*
X116337942Y-85191185D01*
X116358584Y-85207819D01*
X126437885Y-95287120D01*
X126471370Y-95348443D01*
X126466386Y-95418135D01*
X126443433Y-95456559D01*
X126312234Y-95606165D01*
X126229207Y-95707332D01*
X125910519Y-96122657D01*
X125834289Y-96229035D01*
X125543449Y-96664309D01*
X125474326Y-96775466D01*
X125212576Y-97228829D01*
X125150887Y-97344242D01*
X124919339Y-97813773D01*
X124865333Y-97932968D01*
X124664995Y-98416629D01*
X124618889Y-98539130D01*
X124450618Y-99034839D01*
X124412625Y-99160081D01*
X124277132Y-99665749D01*
X124247409Y-99793224D01*
X124145286Y-100306635D01*
X124123961Y-100435796D01*
X124055632Y-100954803D01*
X124042805Y-101085043D01*
X124008565Y-101607443D01*
X124004283Y-101738258D01*
X124004283Y-102261741D01*
X124008565Y-102392556D01*
X124042805Y-102914956D01*
X124055632Y-103045196D01*
X124123961Y-103564203D01*
X124145286Y-103693364D01*
X124247409Y-104206775D01*
X124277132Y-104334250D01*
X124412625Y-104839918D01*
X124450618Y-104965160D01*
X124618889Y-105460869D01*
X124664995Y-105583370D01*
X124865333Y-106067031D01*
X124919339Y-106186226D01*
X125150887Y-106655757D01*
X125212576Y-106771170D01*
X125474326Y-107224533D01*
X125474333Y-107224544D01*
X125543444Y-107335683D01*
X125834288Y-107770962D01*
X125910520Y-107877344D01*
X126006928Y-108002986D01*
X126229207Y-108292667D01*
X126312235Y-108393836D01*
X126312237Y-108393838D01*
X126657408Y-108787430D01*
X126746873Y-108882952D01*
X127117048Y-109253127D01*
X127212570Y-109342592D01*
X127563645Y-109650477D01*
X127606163Y-109687764D01*
X127707332Y-109770792D01*
X127942333Y-109951114D01*
X128122656Y-110089480D01*
X128229038Y-110165712D01*
X128664317Y-110456556D01*
X128775456Y-110525667D01*
X128775466Y-110525673D01*
X129228829Y-110787423D01*
X129344242Y-110849112D01*
X129813773Y-111080660D01*
X129932968Y-111134666D01*
X129932979Y-111134670D01*
X129932980Y-111134671D01*
X130416636Y-111335007D01*
X130539119Y-111381106D01*
X130539130Y-111381110D01*
X131034839Y-111549381D01*
X131160081Y-111587374D01*
X131160085Y-111587375D01*
X131665752Y-111722868D01*
X131732966Y-111738539D01*
X131793224Y-111752590D01*
X132197500Y-111833004D01*
X132306654Y-111854717D01*
X132435784Y-111876037D01*
X132954811Y-111944368D01*
X133085056Y-111957196D01*
X133607440Y-111991435D01*
X133738247Y-111995717D01*
X133738259Y-111995717D01*
X134261741Y-111995717D01*
X134261753Y-111995717D01*
X134392560Y-111991435D01*
X134914944Y-111957196D01*
X135045189Y-111944368D01*
X135564216Y-111876037D01*
X135693346Y-111854717D01*
X135900879Y-111813435D01*
X136206775Y-111752590D01*
X136214879Y-111750700D01*
X136334248Y-111722868D01*
X136839915Y-111587375D01*
X136965158Y-111549382D01*
X137460881Y-111381106D01*
X137583364Y-111335007D01*
X138067020Y-111134671D01*
X138071899Y-111132460D01*
X138186226Y-111080660D01*
X138349790Y-110999999D01*
X138655752Y-110849115D01*
X138713463Y-110818267D01*
X138771170Y-110787423D01*
X138952889Y-110682507D01*
X139224544Y-110525667D01*
X139335683Y-110456556D01*
X139770962Y-110165712D01*
X139877344Y-110089480D01*
X140292668Y-109770791D01*
X140393838Y-109687763D01*
X140787430Y-109342592D01*
X140882952Y-109253127D01*
X141253127Y-108882952D01*
X141342592Y-108787430D01*
X141687763Y-108393838D01*
X141770791Y-108292668D01*
X142089480Y-107877344D01*
X142165712Y-107770962D01*
X142456556Y-107335683D01*
X142525667Y-107224544D01*
X142787420Y-106771175D01*
X142849115Y-106655752D01*
X143080656Y-106186234D01*
X143134671Y-106067020D01*
X143335007Y-105583364D01*
X143381106Y-105460881D01*
X143549382Y-104965158D01*
X143587375Y-104839915D01*
X143722868Y-104334248D01*
X143752586Y-104206792D01*
X143752590Y-104206775D01*
X143854713Y-103693364D01*
X143854717Y-103693346D01*
X143876037Y-103564216D01*
X143944368Y-103045189D01*
X143957196Y-102914944D01*
X143991435Y-102392560D01*
X143995717Y-102261753D01*
X143995717Y-101738247D01*
X143991435Y-101607440D01*
X143957196Y-101085056D01*
X143944368Y-100954811D01*
X143876037Y-100435784D01*
X143854717Y-100306654D01*
X143833004Y-100197500D01*
X143752590Y-99793224D01*
X143722867Y-99665749D01*
X143587374Y-99160081D01*
X143549381Y-99034839D01*
X143381110Y-98539130D01*
X143335004Y-98416629D01*
X143134666Y-97932968D01*
X143080660Y-97813773D01*
X142849112Y-97344242D01*
X142787423Y-97228829D01*
X142525673Y-96775466D01*
X142525667Y-96775456D01*
X142456556Y-96664317D01*
X142165712Y-96229038D01*
X142089480Y-96122656D01*
X141951114Y-95942333D01*
X141770792Y-95707332D01*
X141687764Y-95606163D01*
X141650477Y-95563645D01*
X141342592Y-95212570D01*
X141253127Y-95117048D01*
X140882952Y-94746873D01*
X140787430Y-94657408D01*
X140393838Y-94312237D01*
X140393836Y-94312235D01*
X140292667Y-94229207D01*
X140002986Y-94006928D01*
X139877344Y-93910520D01*
X139824153Y-93872404D01*
X139770964Y-93834289D01*
X139548834Y-93685867D01*
X139335683Y-93543444D01*
X139224544Y-93474333D01*
X139224533Y-93474326D01*
X138771170Y-93212576D01*
X138655757Y-93150887D01*
X138320816Y-92985712D01*
X138269397Y-92938407D01*
X138251715Y-92870811D01*
X138273385Y-92804387D01*
X138327527Y-92760223D01*
X138375660Y-92750500D01*
X144849903Y-92750500D01*
X144916942Y-92770185D01*
X144937584Y-92786819D01*
X147437885Y-95287120D01*
X147471370Y-95348443D01*
X147466386Y-95418135D01*
X147443433Y-95456559D01*
X147312234Y-95606165D01*
X147229207Y-95707332D01*
X146910519Y-96122657D01*
X146834289Y-96229035D01*
X146543449Y-96664309D01*
X146474326Y-96775466D01*
X146212576Y-97228829D01*
X146150887Y-97344242D01*
X145919339Y-97813773D01*
X145865333Y-97932968D01*
X145664995Y-98416629D01*
X145618889Y-98539130D01*
X145450618Y-99034839D01*
X145412625Y-99160081D01*
X145277132Y-99665749D01*
X145247409Y-99793224D01*
X145145286Y-100306635D01*
X145123961Y-100435796D01*
X145055632Y-100954803D01*
X145042805Y-101085043D01*
X145008565Y-101607443D01*
X145004283Y-101738258D01*
X145004283Y-102261741D01*
X145008565Y-102392556D01*
X145042805Y-102914956D01*
X145055632Y-103045196D01*
X145123961Y-103564203D01*
X145145286Y-103693364D01*
X145247409Y-104206775D01*
X145277132Y-104334250D01*
X145412625Y-104839918D01*
X145450618Y-104965160D01*
X145618889Y-105460869D01*
X145664995Y-105583370D01*
X145865333Y-106067031D01*
X145919339Y-106186226D01*
X146150887Y-106655757D01*
X146212576Y-106771170D01*
X146474326Y-107224533D01*
X146474333Y-107224544D01*
X146543444Y-107335683D01*
X146834288Y-107770962D01*
X146910520Y-107877344D01*
X147006928Y-108002986D01*
X147229207Y-108292667D01*
X147312235Y-108393836D01*
X147312237Y-108393838D01*
X147657408Y-108787430D01*
X147746873Y-108882952D01*
X148117048Y-109253127D01*
X148212570Y-109342592D01*
X148563645Y-109650477D01*
X148606163Y-109687764D01*
X148707332Y-109770792D01*
X148942333Y-109951114D01*
X149122656Y-110089480D01*
X149229038Y-110165712D01*
X149664317Y-110456556D01*
X149775456Y-110525667D01*
X149775466Y-110525673D01*
X150228829Y-110787423D01*
X150344242Y-110849112D01*
X150813773Y-111080660D01*
X150932968Y-111134666D01*
X150932979Y-111134670D01*
X150932980Y-111134671D01*
X151416636Y-111335007D01*
X151539119Y-111381106D01*
X151539130Y-111381110D01*
X152034839Y-111549381D01*
X152160081Y-111587374D01*
X152160085Y-111587375D01*
X152665752Y-111722868D01*
X152732966Y-111738539D01*
X152793224Y-111752590D01*
X153197500Y-111833004D01*
X153306654Y-111854717D01*
X153435784Y-111876037D01*
X153954811Y-111944368D01*
X154085056Y-111957196D01*
X154607440Y-111991435D01*
X154738247Y-111995717D01*
X154738259Y-111995717D01*
X155261741Y-111995717D01*
X155261753Y-111995717D01*
X155392560Y-111991435D01*
X155914944Y-111957196D01*
X156045189Y-111944368D01*
X156564216Y-111876037D01*
X156693346Y-111854717D01*
X156900879Y-111813435D01*
X157206775Y-111752590D01*
X157214879Y-111750700D01*
X157334248Y-111722868D01*
X157839915Y-111587375D01*
X157965158Y-111549382D01*
X158460881Y-111381106D01*
X158583364Y-111335007D01*
X159067020Y-111134671D01*
X159071899Y-111132460D01*
X159186226Y-111080660D01*
X159349790Y-110999999D01*
X159655752Y-110849115D01*
X159713463Y-110818267D01*
X159771170Y-110787423D01*
X159952889Y-110682507D01*
X160224544Y-110525667D01*
X160335683Y-110456556D01*
X160770962Y-110165712D01*
X160877344Y-110089480D01*
X161292668Y-109770791D01*
X161393838Y-109687763D01*
X161787430Y-109342592D01*
X161882952Y-109253127D01*
X162253127Y-108882952D01*
X162342592Y-108787430D01*
X162687763Y-108393838D01*
X162770791Y-108292668D01*
X163089480Y-107877344D01*
X163165712Y-107770962D01*
X163456556Y-107335683D01*
X163525667Y-107224544D01*
X163787420Y-106771175D01*
X163849115Y-106655752D01*
X164080656Y-106186234D01*
X164134671Y-106067020D01*
X164335007Y-105583364D01*
X164381106Y-105460881D01*
X164549382Y-104965158D01*
X164587375Y-104839915D01*
X164722868Y-104334248D01*
X164752586Y-104206792D01*
X164752590Y-104206775D01*
X164854713Y-103693364D01*
X164854717Y-103693346D01*
X164876037Y-103564216D01*
X164944368Y-103045189D01*
X164957196Y-102914944D01*
X164991435Y-102392560D01*
X164995717Y-102261753D01*
X164995717Y-101738247D01*
X164991435Y-101607440D01*
X164957196Y-101085056D01*
X164944368Y-100954811D01*
X164876037Y-100435784D01*
X164854717Y-100306654D01*
X164833004Y-100197500D01*
X164752590Y-99793224D01*
X164722867Y-99665749D01*
X164587374Y-99160081D01*
X164549381Y-99034839D01*
X164381110Y-98539130D01*
X164335004Y-98416629D01*
X164134671Y-97932980D01*
X164134666Y-97932968D01*
X164080656Y-97813766D01*
X164073867Y-97800000D01*
X164073866Y-97799997D01*
X167000000Y-97799997D01*
X167000000Y-106199999D01*
X167005096Y-106342678D01*
X167045704Y-106625124D01*
X167045706Y-106625132D01*
X167126101Y-106898928D01*
X167244641Y-107158497D01*
X167244644Y-107158502D01*
X167398917Y-107398554D01*
X167398923Y-107398562D01*
X167585770Y-107614196D01*
X167585786Y-107614214D01*
X167585793Y-107614221D01*
X167585805Y-107614234D01*
X170385774Y-110414203D01*
X170385786Y-110414214D01*
X170490279Y-110511499D01*
X170718718Y-110682507D01*
X170718722Y-110682509D01*
X170718723Y-110682510D01*
X170969164Y-110819261D01*
X170969168Y-110819263D01*
X170969170Y-110819264D01*
X171236535Y-110918986D01*
X171375952Y-110949314D01*
X171515364Y-110979642D01*
X171515366Y-110979642D01*
X171515370Y-110979643D01*
X171800000Y-111000000D01*
X175082451Y-111000000D01*
X175149490Y-111019685D01*
X175195245Y-111072489D01*
X175205189Y-111141647D01*
X175204068Y-111148192D01*
X175199500Y-111171155D01*
X175199500Y-111328846D01*
X175230261Y-111483489D01*
X175230264Y-111483501D01*
X175290602Y-111629172D01*
X175290609Y-111629185D01*
X175378210Y-111760288D01*
X175378213Y-111760292D01*
X175489707Y-111871786D01*
X175489711Y-111871789D01*
X175620814Y-111959390D01*
X175620827Y-111959397D01*
X175766498Y-112019735D01*
X175766503Y-112019737D01*
X175921153Y-112050499D01*
X175921156Y-112050500D01*
X175921158Y-112050500D01*
X176078844Y-112050500D01*
X176078845Y-112050499D01*
X176233497Y-112019737D01*
X176379179Y-111959394D01*
X176510289Y-111871789D01*
X176621789Y-111760289D01*
X176709394Y-111629179D01*
X176769737Y-111483497D01*
X176800500Y-111328842D01*
X176800500Y-111171158D01*
X176800500Y-111171155D01*
X176795932Y-111148192D01*
X176802159Y-111078601D01*
X176845021Y-111023423D01*
X176910911Y-111000178D01*
X176917549Y-111000000D01*
X180200000Y-111000000D01*
X180342678Y-110994904D01*
X180625131Y-110954294D01*
X180898928Y-110873899D01*
X181158498Y-110755358D01*
X181398555Y-110601082D01*
X181614214Y-110414214D01*
X184414214Y-107614214D01*
X184511499Y-107509721D01*
X184682507Y-107281282D01*
X184819264Y-107030830D01*
X184918986Y-106763465D01*
X184979643Y-106484630D01*
X185000000Y-106200000D01*
X185000000Y-97800000D01*
X185000000Y-97799997D01*
X188000000Y-97799997D01*
X188000000Y-106199999D01*
X188005096Y-106342678D01*
X188045704Y-106625124D01*
X188045706Y-106625132D01*
X188126101Y-106898928D01*
X188244641Y-107158497D01*
X188244644Y-107158502D01*
X188398917Y-107398554D01*
X188398923Y-107398562D01*
X188585770Y-107614196D01*
X188585786Y-107614214D01*
X188585793Y-107614221D01*
X188585805Y-107614234D01*
X191385774Y-110414203D01*
X191385786Y-110414214D01*
X191490279Y-110511499D01*
X191718718Y-110682507D01*
X191718722Y-110682509D01*
X191718723Y-110682510D01*
X191969164Y-110819261D01*
X191969168Y-110819263D01*
X191969170Y-110819264D01*
X192236535Y-110918986D01*
X192375952Y-110949314D01*
X192515364Y-110979642D01*
X192515366Y-110979642D01*
X192515370Y-110979643D01*
X192800000Y-111000000D01*
X196275500Y-111000000D01*
X196342539Y-111019685D01*
X196388294Y-111072489D01*
X196399500Y-111124000D01*
X196399500Y-112020234D01*
X196379815Y-112087273D01*
X196378602Y-112089125D01*
X196290609Y-112220814D01*
X196290602Y-112220827D01*
X196230264Y-112366498D01*
X196230261Y-112366510D01*
X196199500Y-112521153D01*
X196199500Y-112678846D01*
X196230261Y-112833489D01*
X196230264Y-112833501D01*
X196290602Y-112979172D01*
X196290609Y-112979185D01*
X196378210Y-113110288D01*
X196378213Y-113110292D01*
X196489707Y-113221786D01*
X196489711Y-113221789D01*
X196620814Y-113309390D01*
X196620827Y-113309397D01*
X196766498Y-113369735D01*
X196766503Y-113369737D01*
X196921153Y-113400499D01*
X196921156Y-113400500D01*
X196921158Y-113400500D01*
X197078844Y-113400500D01*
X197078845Y-113400499D01*
X197233497Y-113369737D01*
X197379179Y-113309394D01*
X197510289Y-113221789D01*
X197621789Y-113110289D01*
X197709394Y-112979179D01*
X197769737Y-112833497D01*
X197800500Y-112678842D01*
X197800500Y-112521158D01*
X197800500Y-112521155D01*
X197800499Y-112521153D01*
X197769738Y-112366510D01*
X197769737Y-112366503D01*
X197769735Y-112366498D01*
X197709397Y-112220827D01*
X197709390Y-112220814D01*
X197621398Y-112089125D01*
X197600520Y-112022447D01*
X197600500Y-112020234D01*
X197600500Y-111124000D01*
X197620185Y-111056961D01*
X197672989Y-111011206D01*
X197724500Y-111000000D01*
X201200000Y-111000000D01*
X201342678Y-110994904D01*
X201625131Y-110954294D01*
X201898928Y-110873899D01*
X202158498Y-110755358D01*
X202398555Y-110601082D01*
X202614214Y-110414214D01*
X205414214Y-107614214D01*
X205511499Y-107509721D01*
X205682507Y-107281282D01*
X205819264Y-107030830D01*
X205918986Y-106763465D01*
X205979643Y-106484630D01*
X206000000Y-106200000D01*
X206000000Y-97800000D01*
X205994904Y-97657322D01*
X205954294Y-97374869D01*
X205873899Y-97101072D01*
X205755358Y-96841502D01*
X205601082Y-96601445D01*
X205601076Y-96601437D01*
X205414229Y-96385803D01*
X205414224Y-96385798D01*
X205414214Y-96385786D01*
X205414202Y-96385774D01*
X205414194Y-96385765D01*
X202614225Y-93585796D01*
X202509720Y-93488500D01*
X202390059Y-93398923D01*
X202281282Y-93317493D01*
X202281277Y-93317490D01*
X202281276Y-93317489D01*
X202030835Y-93180738D01*
X202030831Y-93180736D01*
X201929468Y-93142930D01*
X201763465Y-93081014D01*
X201763461Y-93081013D01*
X201763458Y-93081012D01*
X201484635Y-93020357D01*
X201200002Y-93000000D01*
X201200000Y-93000000D01*
X192800000Y-93000000D01*
X192657321Y-93005096D01*
X192374875Y-93045704D01*
X192374867Y-93045706D01*
X192101071Y-93126101D01*
X191841502Y-93244641D01*
X191841497Y-93244644D01*
X191601445Y-93398917D01*
X191601437Y-93398923D01*
X191385803Y-93585770D01*
X191385765Y-93585805D01*
X188585796Y-96385774D01*
X188488500Y-96490279D01*
X188317490Y-96718722D01*
X188317489Y-96718723D01*
X188180738Y-96969164D01*
X188180736Y-96969168D01*
X188081012Y-97236541D01*
X188020357Y-97515364D01*
X188000000Y-97799997D01*
X185000000Y-97799997D01*
X184994904Y-97657322D01*
X184954294Y-97374869D01*
X184873899Y-97101072D01*
X184755358Y-96841502D01*
X184601082Y-96601445D01*
X184601076Y-96601437D01*
X184414229Y-96385803D01*
X184414224Y-96385798D01*
X184414214Y-96385786D01*
X184414202Y-96385774D01*
X184414194Y-96385765D01*
X181614225Y-93585796D01*
X181509720Y-93488500D01*
X181390059Y-93398923D01*
X181281282Y-93317493D01*
X181281277Y-93317490D01*
X181281276Y-93317489D01*
X181030835Y-93180738D01*
X181030831Y-93180736D01*
X180929468Y-93142930D01*
X180763465Y-93081014D01*
X180763461Y-93081013D01*
X180763458Y-93081012D01*
X180484635Y-93020357D01*
X180200002Y-93000000D01*
X180200000Y-93000000D01*
X171800000Y-93000000D01*
X171657321Y-93005096D01*
X171374875Y-93045704D01*
X171374867Y-93045706D01*
X171101071Y-93126101D01*
X170841502Y-93244641D01*
X170841497Y-93244644D01*
X170601445Y-93398917D01*
X170601437Y-93398923D01*
X170385803Y-93585770D01*
X170385765Y-93585805D01*
X167585796Y-96385774D01*
X167488500Y-96490279D01*
X167317490Y-96718722D01*
X167317489Y-96718723D01*
X167180738Y-96969164D01*
X167180736Y-96969168D01*
X167081012Y-97236541D01*
X167020357Y-97515364D01*
X167000000Y-97799997D01*
X164073866Y-97799997D01*
X163849112Y-97344242D01*
X163787423Y-97228829D01*
X163525673Y-96775466D01*
X163525667Y-96775456D01*
X163456556Y-96664317D01*
X163165712Y-96229038D01*
X163089480Y-96122656D01*
X162951114Y-95942333D01*
X162770792Y-95707332D01*
X162687764Y-95606163D01*
X162650477Y-95563645D01*
X162342592Y-95212570D01*
X162253127Y-95117048D01*
X161882952Y-94746873D01*
X161787430Y-94657408D01*
X161393838Y-94312237D01*
X161393836Y-94312235D01*
X161292667Y-94229207D01*
X161002986Y-94006928D01*
X160877344Y-93910520D01*
X160824153Y-93872404D01*
X160770964Y-93834289D01*
X160548834Y-93685867D01*
X160335683Y-93543444D01*
X160224544Y-93474333D01*
X160224533Y-93474326D01*
X159771170Y-93212576D01*
X159655757Y-93150887D01*
X159186226Y-92919339D01*
X159067031Y-92865333D01*
X158583367Y-92664994D01*
X158460869Y-92618889D01*
X157965160Y-92450618D01*
X157839918Y-92412625D01*
X157334250Y-92277132D01*
X157206775Y-92247409D01*
X156693364Y-92145286D01*
X156693346Y-92145283D01*
X156564216Y-92123963D01*
X156564211Y-92123962D01*
X156564203Y-92123961D01*
X156045196Y-92055632D01*
X155914956Y-92042805D01*
X155914950Y-92042804D01*
X155914944Y-92042804D01*
X155392560Y-92008565D01*
X155261753Y-92004283D01*
X154738247Y-92004283D01*
X154607440Y-92008565D01*
X154085056Y-92042804D01*
X154085051Y-92042804D01*
X154085043Y-92042805D01*
X153954803Y-92055632D01*
X153435796Y-92123961D01*
X153306635Y-92145286D01*
X152793224Y-92247409D01*
X152665749Y-92277132D01*
X152160081Y-92412625D01*
X152034839Y-92450618D01*
X151539130Y-92618889D01*
X151416633Y-92664994D01*
X150932968Y-92865333D01*
X150813773Y-92919339D01*
X150344242Y-93150887D01*
X150228829Y-93212576D01*
X149775466Y-93474326D01*
X149664309Y-93543449D01*
X149229035Y-93834289D01*
X149122657Y-93910519D01*
X148707332Y-94229207D01*
X148606165Y-94312234D01*
X148456559Y-94443433D01*
X148393177Y-94472835D01*
X148323960Y-94463302D01*
X148287120Y-94437885D01*
X145637590Y-91788355D01*
X145637588Y-91788352D01*
X145518717Y-91669481D01*
X145518716Y-91669480D01*
X145431904Y-91619360D01*
X145431904Y-91619359D01*
X145431900Y-91619358D01*
X145381785Y-91590423D01*
X145229057Y-91549499D01*
X145070943Y-91549499D01*
X145063347Y-91549499D01*
X145063331Y-91549500D01*
X127995097Y-91549500D01*
X127928058Y-91529815D01*
X127907416Y-91513181D01*
X121777416Y-85383181D01*
X121743931Y-85321858D01*
X121748915Y-85252166D01*
X121790787Y-85196233D01*
X121856251Y-85171816D01*
X121865097Y-85171500D01*
X122215526Y-85171500D01*
X122215534Y-85171500D01*
X122252548Y-85168587D01*
X122252550Y-85168586D01*
X122252552Y-85168586D01*
X122299755Y-85154872D01*
X122410959Y-85122564D01*
X122552947Y-85038592D01*
X122669592Y-84921947D01*
X122703268Y-84865003D01*
X122754337Y-84817321D01*
X122823079Y-84804817D01*
X122887668Y-84831462D01*
X122916732Y-84865004D01*
X122950406Y-84921944D01*
X122950412Y-84921952D01*
X123067047Y-85038587D01*
X123067056Y-85038594D01*
X123106287Y-85061795D01*
X123209041Y-85122564D01*
X123249822Y-85134412D01*
X123367447Y-85168586D01*
X123367450Y-85168586D01*
X123367452Y-85168587D01*
X123404466Y-85171500D01*
X123404474Y-85171500D01*
X124755526Y-85171500D01*
X124755534Y-85171500D01*
X124792548Y-85168587D01*
X124792550Y-85168586D01*
X124792552Y-85168586D01*
X124801198Y-85166073D01*
X124839754Y-85154872D01*
X124909621Y-85155069D01*
X124962031Y-85186266D01*
X125290139Y-85514374D01*
X125290149Y-85514385D01*
X125294479Y-85518715D01*
X125294480Y-85518716D01*
X125406284Y-85630520D01*
X125493095Y-85680639D01*
X125493097Y-85680641D01*
X125531151Y-85702611D01*
X125543215Y-85709577D01*
X125695943Y-85750501D01*
X125695946Y-85750501D01*
X125861653Y-85750501D01*
X125861669Y-85750500D01*
X145203331Y-85750500D01*
X145203347Y-85750501D01*
X145210943Y-85750501D01*
X145369054Y-85750501D01*
X145369057Y-85750501D01*
X145521785Y-85709577D01*
X145571904Y-85680639D01*
X145658716Y-85630520D01*
X145770520Y-85518716D01*
X145770520Y-85518714D01*
X145780728Y-85508507D01*
X145780730Y-85508504D01*
X146314129Y-84975104D01*
X146375450Y-84941621D01*
X146445142Y-84946605D01*
X146501075Y-84988477D01*
X146525492Y-85053941D01*
X146524282Y-85082184D01*
X146509500Y-85175518D01*
X146509500Y-85364486D01*
X146539059Y-85551118D01*
X146597454Y-85730836D01*
X146683240Y-85899199D01*
X146794310Y-86052073D01*
X146927927Y-86185690D01*
X147080801Y-86296760D01*
X147249168Y-86382547D01*
X147371612Y-86422331D01*
X147429287Y-86461769D01*
X147456485Y-86526127D01*
X147444570Y-86594974D01*
X147397326Y-86646449D01*
X147371612Y-86658193D01*
X147249361Y-86697915D01*
X147081060Y-86783669D01*
X147055670Y-86802116D01*
X147055669Y-86802116D01*
X147580591Y-87327037D01*
X147517007Y-87344075D01*
X147402993Y-87409901D01*
X147309901Y-87502993D01*
X147244075Y-87617007D01*
X147227037Y-87680590D01*
X146702116Y-87155669D01*
X146702116Y-87155670D01*
X146683669Y-87181060D01*
X146597914Y-87349362D01*
X146539548Y-87528997D01*
X146510000Y-87715552D01*
X146510000Y-87904447D01*
X146539548Y-88091002D01*
X146597914Y-88270637D01*
X146683666Y-88438933D01*
X146702116Y-88464328D01*
X147227037Y-87939408D01*
X147244075Y-88002993D01*
X147309901Y-88117007D01*
X147402993Y-88210099D01*
X147517007Y-88275925D01*
X147580590Y-88292962D01*
X147055669Y-88817882D01*
X147055670Y-88817883D01*
X147081059Y-88836329D01*
X147249362Y-88922085D01*
X147428997Y-88980451D01*
X147615553Y-89010000D01*
X147804447Y-89010000D01*
X147991002Y-88980451D01*
X148170637Y-88922085D01*
X148338937Y-88836331D01*
X148364328Y-88817883D01*
X148364328Y-88817882D01*
X147839409Y-88292962D01*
X147902993Y-88275925D01*
X148017007Y-88210099D01*
X148110099Y-88117007D01*
X148175925Y-88002993D01*
X148192962Y-87939408D01*
X148717882Y-88464328D01*
X148717883Y-88464328D01*
X148736331Y-88438937D01*
X148822085Y-88270637D01*
X148880451Y-88091002D01*
X148910000Y-87904447D01*
X148910000Y-87715552D01*
X148880451Y-87528997D01*
X148822085Y-87349362D01*
X148736329Y-87181059D01*
X148717883Y-87155670D01*
X148717882Y-87155669D01*
X148192962Y-87680590D01*
X148175925Y-87617007D01*
X148110099Y-87502993D01*
X148017007Y-87409901D01*
X147902993Y-87344075D01*
X147839409Y-87327037D01*
X148364328Y-86802116D01*
X148338933Y-86783666D01*
X148170637Y-86697914D01*
X148048388Y-86658193D01*
X147990712Y-86618755D01*
X147963514Y-86554397D01*
X147975429Y-86485550D01*
X148022673Y-86434075D01*
X148048382Y-86422333D01*
X148170832Y-86382547D01*
X148339199Y-86296760D01*
X148492073Y-86185690D01*
X148625690Y-86052073D01*
X148736760Y-85899199D01*
X148822547Y-85730832D01*
X148880940Y-85551118D01*
X148886072Y-85518716D01*
X148910500Y-85364486D01*
X148910500Y-85175513D01*
X148880940Y-84988881D01*
X148822545Y-84809163D01*
X148736759Y-84640800D01*
X148625690Y-84487927D01*
X148492073Y-84354310D01*
X148339199Y-84243240D01*
X148170836Y-84157454D01*
X148096472Y-84133291D01*
X148049195Y-84117930D01*
X147991521Y-84078493D01*
X147964323Y-84014134D01*
X147976238Y-83945288D01*
X148023482Y-83893812D01*
X148049194Y-83882069D01*
X148170832Y-83842547D01*
X148339199Y-83756760D01*
X148492073Y-83645690D01*
X148625690Y-83512073D01*
X148736760Y-83359199D01*
X148822547Y-83190832D01*
X148880940Y-83011118D01*
X148910500Y-82824486D01*
X148910500Y-82635513D01*
X148880940Y-82448881D01*
X148828813Y-82288453D01*
X148822547Y-82269168D01*
X148822545Y-82269165D01*
X148822545Y-82269163D01*
X148760821Y-82148023D01*
X148736760Y-82100801D01*
X148625690Y-81947927D01*
X148492073Y-81814310D01*
X148339199Y-81703240D01*
X148170836Y-81617454D01*
X148096472Y-81593291D01*
X148049195Y-81577930D01*
X147991521Y-81538493D01*
X147964323Y-81474134D01*
X147976238Y-81405288D01*
X148023482Y-81353812D01*
X148049194Y-81342069D01*
X148170832Y-81302547D01*
X148339199Y-81216760D01*
X148492073Y-81105690D01*
X148625690Y-80972073D01*
X148736760Y-80819199D01*
X148822547Y-80650832D01*
X148880940Y-80471118D01*
X148910500Y-80284486D01*
X148910500Y-80095513D01*
X148880940Y-79908881D01*
X148822545Y-79729163D01*
X148736759Y-79560800D01*
X148625690Y-79407927D01*
X148492073Y-79274310D01*
X148339199Y-79163240D01*
X148170836Y-79077454D01*
X147991118Y-79019059D01*
X147804486Y-78989500D01*
X147804481Y-78989500D01*
X147615519Y-78989500D01*
X147615514Y-78989500D01*
X147428881Y-79019059D01*
X147249163Y-79077454D01*
X147080800Y-79163240D01*
X146993579Y-79226610D01*
X146927927Y-79274310D01*
X146927925Y-79274312D01*
X146927924Y-79274312D01*
X146794312Y-79407924D01*
X146794312Y-79407925D01*
X146794310Y-79407927D01*
X146746610Y-79473579D01*
X146683240Y-79560800D01*
X146597454Y-79729163D01*
X146539059Y-79908881D01*
X146509500Y-80095513D01*
X146509500Y-80284486D01*
X146539059Y-80471118D01*
X146597454Y-80650836D01*
X146683240Y-80819199D01*
X146794310Y-80972073D01*
X146927927Y-81105690D01*
X147080801Y-81216760D01*
X147124428Y-81238989D01*
X147249163Y-81302545D01*
X147249165Y-81302545D01*
X147249168Y-81302547D01*
X147338734Y-81331649D01*
X147370803Y-81342069D01*
X147428478Y-81381507D01*
X147455676Y-81445866D01*
X147443761Y-81514712D01*
X147396516Y-81566188D01*
X147370803Y-81577931D01*
X147249163Y-81617454D01*
X147080800Y-81703240D01*
X146993579Y-81766610D01*
X146927927Y-81814310D01*
X146927925Y-81814312D01*
X146927924Y-81814312D01*
X146794312Y-81947924D01*
X146794312Y-81947925D01*
X146794310Y-81947927D01*
X146746610Y-82013579D01*
X146683240Y-82100800D01*
X146597454Y-82269163D01*
X146539059Y-82448881D01*
X146509500Y-82635513D01*
X146509500Y-82824486D01*
X146534725Y-82983751D01*
X146525770Y-83053045D01*
X146499933Y-83090830D01*
X145077584Y-84513181D01*
X145016261Y-84546666D01*
X144989903Y-84549500D01*
X128006500Y-84549500D01*
X127939461Y-84529815D01*
X127893706Y-84477011D01*
X127882500Y-84425500D01*
X127882500Y-82325473D01*
X127882499Y-82325458D01*
X127879587Y-82288451D01*
X127879102Y-82285796D01*
X127879260Y-82284295D01*
X127879090Y-82282135D01*
X127879490Y-82282103D01*
X127886418Y-82216311D01*
X127913399Y-82175834D01*
X132652416Y-77436819D01*
X132713739Y-77403334D01*
X132740097Y-77400500D01*
X175613331Y-77400500D01*
X175613347Y-77400501D01*
X175620943Y-77400501D01*
X175779054Y-77400501D01*
X175779057Y-77400501D01*
X175931785Y-77359577D01*
X175981904Y-77330639D01*
X176068716Y-77280520D01*
X176180520Y-77168716D01*
X176180520Y-77168714D01*
X176190728Y-77158507D01*
X176190730Y-77158504D01*
X179822723Y-73526510D01*
X179884044Y-73493027D01*
X179953736Y-73498011D01*
X179998083Y-73526512D01*
X180885774Y-74414203D01*
X180885786Y-74414214D01*
X180990279Y-74511499D01*
X181218718Y-74682507D01*
X181218722Y-74682509D01*
X181218723Y-74682510D01*
X181469164Y-74819261D01*
X181469168Y-74819263D01*
X181469170Y-74819264D01*
X181736535Y-74918986D01*
X181875952Y-74949314D01*
X182015364Y-74979642D01*
X182015366Y-74979642D01*
X182015370Y-74979643D01*
X182300000Y-75000000D01*
X190700000Y-75000000D01*
X190842678Y-74994904D01*
X191125131Y-74954294D01*
X191398928Y-74873899D01*
X191658498Y-74755358D01*
X191898555Y-74601082D01*
X192114214Y-74414214D01*
X194914214Y-71614214D01*
X195011499Y-71509721D01*
X195182507Y-71281282D01*
X195319264Y-71030830D01*
X195418986Y-70763465D01*
X195479643Y-70484630D01*
X195500000Y-70200000D01*
X195500000Y-61800000D01*
X195494904Y-61657322D01*
X195454294Y-61374869D01*
X195373899Y-61101072D01*
X195255358Y-60841502D01*
X195180779Y-60725456D01*
X195101082Y-60601445D01*
X195101076Y-60601437D01*
X194914229Y-60385803D01*
X194914224Y-60385798D01*
X194914214Y-60385786D01*
X194914202Y-60385774D01*
X194914194Y-60385765D01*
X192114225Y-57585796D01*
X192009720Y-57488500D01*
X191924003Y-57424333D01*
X191781282Y-57317493D01*
X191781277Y-57317490D01*
X191781276Y-57317489D01*
X191530835Y-57180738D01*
X191530831Y-57180736D01*
X191429468Y-57142930D01*
X191263465Y-57081014D01*
X191263461Y-57081013D01*
X191263458Y-57081012D01*
X190984635Y-57020357D01*
X190700002Y-57000000D01*
X190700000Y-57000000D01*
X182300000Y-57000000D01*
X182157321Y-57005096D01*
X181874875Y-57045704D01*
X181874867Y-57045706D01*
X181601071Y-57126101D01*
X181341502Y-57244641D01*
X181341497Y-57244644D01*
X181101445Y-57398917D01*
X181101437Y-57398923D01*
X180885803Y-57585770D01*
X180885765Y-57585805D01*
X178085796Y-60385774D01*
X177988500Y-60490279D01*
X177817490Y-60718722D01*
X177817489Y-60718723D01*
X177680738Y-60969164D01*
X177680736Y-60969168D01*
X177581012Y-61236541D01*
X177520357Y-61515364D01*
X177500000Y-61799997D01*
X177500000Y-70199999D01*
X177505096Y-70342678D01*
X177545704Y-70625124D01*
X177545706Y-70625132D01*
X177626101Y-70898928D01*
X177744641Y-71158497D01*
X177744644Y-71158502D01*
X177898917Y-71398554D01*
X177898923Y-71398562D01*
X178085770Y-71614196D01*
X178085786Y-71614214D01*
X178085793Y-71614221D01*
X178085805Y-71614234D01*
X178973486Y-72501915D01*
X179006971Y-72563238D01*
X179001987Y-72632930D01*
X178973486Y-72677277D01*
X175487584Y-76163181D01*
X175426261Y-76196666D01*
X175399903Y-76199500D01*
X148624500Y-76199500D01*
X148557461Y-76179815D01*
X148511706Y-76127011D01*
X148500500Y-76075500D01*
X148500500Y-75971155D01*
X148500499Y-75971153D01*
X148486086Y-75898691D01*
X148492313Y-75829100D01*
X148535176Y-75773922D01*
X148601066Y-75750678D01*
X148607703Y-75750500D01*
X156213331Y-75750500D01*
X156213347Y-75750501D01*
X156220943Y-75750501D01*
X156379054Y-75750501D01*
X156379057Y-75750501D01*
X156531785Y-75709577D01*
X156598912Y-75670821D01*
X156668716Y-75630520D01*
X156780520Y-75518716D01*
X156780520Y-75518714D01*
X156790724Y-75508511D01*
X156790728Y-75508506D01*
X158787122Y-73512111D01*
X158848443Y-73478628D01*
X158918135Y-73483612D01*
X158956560Y-73506566D01*
X159106163Y-73637764D01*
X159207332Y-73720792D01*
X159442333Y-73901114D01*
X159622656Y-74039480D01*
X159729038Y-74115712D01*
X160164317Y-74406556D01*
X160275456Y-74475667D01*
X160275466Y-74475673D01*
X160728829Y-74737423D01*
X160844242Y-74799112D01*
X161313773Y-75030660D01*
X161432968Y-75084666D01*
X161432979Y-75084670D01*
X161432980Y-75084671D01*
X161916636Y-75285007D01*
X162039119Y-75331106D01*
X162039130Y-75331110D01*
X162534839Y-75499381D01*
X162660081Y-75537374D01*
X162660085Y-75537375D01*
X163165752Y-75672868D01*
X163232966Y-75688539D01*
X163293224Y-75702590D01*
X163633050Y-75770185D01*
X163806654Y-75804717D01*
X163935784Y-75826037D01*
X164454811Y-75894368D01*
X164585056Y-75907196D01*
X165107440Y-75941435D01*
X165238247Y-75945717D01*
X165238259Y-75945717D01*
X165761741Y-75945717D01*
X165761753Y-75945717D01*
X165892560Y-75941435D01*
X166414944Y-75907196D01*
X166545189Y-75894368D01*
X167064216Y-75826037D01*
X167193346Y-75804717D01*
X167400879Y-75763435D01*
X167706775Y-75702590D01*
X167714879Y-75700700D01*
X167834248Y-75672868D01*
X168339915Y-75537375D01*
X168465158Y-75499382D01*
X168960881Y-75331106D01*
X169083364Y-75285007D01*
X169567020Y-75084671D01*
X169571899Y-75082460D01*
X169686226Y-75030660D01*
X169789680Y-74979642D01*
X170155752Y-74799115D01*
X170213463Y-74768267D01*
X170271170Y-74737423D01*
X170525781Y-74590423D01*
X170724544Y-74475667D01*
X170835683Y-74406556D01*
X171270962Y-74115712D01*
X171377344Y-74039480D01*
X171792668Y-73720791D01*
X171893838Y-73637763D01*
X172287430Y-73292592D01*
X172382952Y-73203127D01*
X172753127Y-72832952D01*
X172842592Y-72737430D01*
X173187763Y-72343838D01*
X173270791Y-72242668D01*
X173589480Y-71827344D01*
X173665712Y-71720962D01*
X173956556Y-71285683D01*
X174025667Y-71174544D01*
X174223553Y-70831794D01*
X174287423Y-70721170D01*
X174338756Y-70625132D01*
X174349115Y-70605752D01*
X174580656Y-70136234D01*
X174612012Y-70067031D01*
X174634666Y-70017031D01*
X174634671Y-70017020D01*
X174835007Y-69533364D01*
X174881106Y-69410881D01*
X175049382Y-68915158D01*
X175087375Y-68789915D01*
X175222868Y-68284248D01*
X175252586Y-68156792D01*
X175252590Y-68156775D01*
X175318683Y-67824500D01*
X175354717Y-67643346D01*
X175376037Y-67514216D01*
X175444368Y-66995189D01*
X175457196Y-66864944D01*
X175491435Y-66342560D01*
X175495717Y-66211753D01*
X175495717Y-65688247D01*
X175491435Y-65557440D01*
X175457196Y-65035056D01*
X175444368Y-64904811D01*
X175376037Y-64385784D01*
X175354717Y-64256654D01*
X175333004Y-64147500D01*
X175252590Y-63743224D01*
X175222867Y-63615749D01*
X175087374Y-63110081D01*
X175049381Y-62984839D01*
X174881110Y-62489130D01*
X174881106Y-62489119D01*
X174835007Y-62366636D01*
X174634671Y-61882980D01*
X174603311Y-61813766D01*
X174580660Y-61763773D01*
X174349112Y-61294242D01*
X174287423Y-61178829D01*
X174025673Y-60725466D01*
X174021480Y-60718723D01*
X173956556Y-60614317D01*
X173665712Y-60179038D01*
X173589480Y-60072656D01*
X173451114Y-59892333D01*
X173270792Y-59657332D01*
X173187764Y-59556163D01*
X173150477Y-59513645D01*
X172842592Y-59162570D01*
X172753127Y-59067048D01*
X172382952Y-58696873D01*
X172287430Y-58607408D01*
X171893838Y-58262237D01*
X171893836Y-58262235D01*
X171792667Y-58179207D01*
X171442504Y-57910519D01*
X171377344Y-57860520D01*
X171324153Y-57822404D01*
X171270964Y-57784289D01*
X170973911Y-57585805D01*
X170835683Y-57493444D01*
X170724544Y-57424333D01*
X170724533Y-57424326D01*
X170271170Y-57162576D01*
X170155757Y-57100887D01*
X169686226Y-56869339D01*
X169567031Y-56815333D01*
X169083370Y-56614995D01*
X168960869Y-56568889D01*
X168465160Y-56400618D01*
X168339918Y-56362625D01*
X167834250Y-56227132D01*
X167706775Y-56197409D01*
X167193364Y-56095286D01*
X167193346Y-56095283D01*
X167064216Y-56073963D01*
X167064211Y-56073962D01*
X167064203Y-56073961D01*
X166545196Y-56005632D01*
X166414956Y-55992805D01*
X166414950Y-55992804D01*
X166414944Y-55992804D01*
X165892560Y-55958565D01*
X165761753Y-55954283D01*
X165238247Y-55954283D01*
X165107440Y-55958565D01*
X164585056Y-55992804D01*
X164585051Y-55992804D01*
X164585043Y-55992805D01*
X164454803Y-56005632D01*
X163935796Y-56073961D01*
X163806635Y-56095286D01*
X163293224Y-56197409D01*
X163165749Y-56227132D01*
X162660081Y-56362625D01*
X162534839Y-56400618D01*
X162039130Y-56568889D01*
X161916629Y-56614995D01*
X161432968Y-56815333D01*
X161313773Y-56869339D01*
X160844242Y-57100887D01*
X160728829Y-57162576D01*
X160275466Y-57424326D01*
X160164309Y-57493449D01*
X159729035Y-57784289D01*
X159622657Y-57860519D01*
X159207332Y-58179207D01*
X159106163Y-58262235D01*
X158718043Y-58602608D01*
X158712570Y-58607408D01*
X158659185Y-58657408D01*
X158617033Y-58696887D01*
X158246887Y-59067033D01*
X158246873Y-59067048D01*
X158200044Y-59117048D01*
X158157401Y-59162578D01*
X157812235Y-59556163D01*
X157729207Y-59657332D01*
X157410519Y-60072657D01*
X157334289Y-60179035D01*
X157043449Y-60614309D01*
X156974326Y-60725466D01*
X156712576Y-61178829D01*
X156650887Y-61294242D01*
X156419339Y-61763773D01*
X156365333Y-61882968D01*
X156164995Y-62366629D01*
X156118889Y-62489130D01*
X155950618Y-62984839D01*
X155912625Y-63110081D01*
X155777132Y-63615749D01*
X155747409Y-63743224D01*
X155645286Y-64256635D01*
X155623961Y-64385796D01*
X155555632Y-64904803D01*
X155550018Y-64961810D01*
X155542804Y-65035056D01*
X155508565Y-65557440D01*
X155504283Y-65688247D01*
X155504283Y-66211753D01*
X155505920Y-66261753D01*
X155508565Y-66342556D01*
X155542805Y-66864956D01*
X155555632Y-66995196D01*
X155606293Y-67379999D01*
X155623963Y-67514216D01*
X155632216Y-67564203D01*
X155645286Y-67643364D01*
X155747409Y-68156775D01*
X155777132Y-68284250D01*
X155912625Y-68789918D01*
X155950618Y-68915160D01*
X156118889Y-69410869D01*
X156164995Y-69533370D01*
X156365333Y-70017031D01*
X156419339Y-70136226D01*
X156650887Y-70605757D01*
X156712576Y-70721170D01*
X156974326Y-71174533D01*
X156974333Y-71174544D01*
X157043444Y-71285683D01*
X157043449Y-71285690D01*
X157262974Y-71614234D01*
X157334288Y-71720962D01*
X157410520Y-71827344D01*
X157506928Y-71952986D01*
X157729207Y-72242667D01*
X157812235Y-72343836D01*
X157943432Y-72493438D01*
X157972835Y-72556820D01*
X157963303Y-72626037D01*
X157937885Y-72662878D01*
X156087584Y-74513181D01*
X156026261Y-74546666D01*
X155999903Y-74549500D01*
X150105356Y-74549500D01*
X150038317Y-74529815D01*
X149992562Y-74477011D01*
X149982618Y-74407853D01*
X150011643Y-74344297D01*
X150036465Y-74322398D01*
X150087285Y-74288440D01*
X150270962Y-74165712D01*
X150377344Y-74089480D01*
X150792668Y-73770791D01*
X150893838Y-73687763D01*
X151287430Y-73342592D01*
X151382952Y-73253127D01*
X151753127Y-72882952D01*
X151842592Y-72787430D01*
X152187763Y-72393838D01*
X152270791Y-72292668D01*
X152589480Y-71877344D01*
X152665712Y-71770962D01*
X152956556Y-71335683D01*
X153025667Y-71224544D01*
X153287420Y-70771175D01*
X153349115Y-70655752D01*
X153580656Y-70186234D01*
X153634671Y-70067020D01*
X153835007Y-69583364D01*
X153881106Y-69460881D01*
X154049382Y-68965158D01*
X154087375Y-68839915D01*
X154222868Y-68334248D01*
X154252586Y-68206792D01*
X154252590Y-68206775D01*
X154346719Y-67733553D01*
X154354717Y-67693346D01*
X154376037Y-67564216D01*
X154444368Y-67045189D01*
X154457196Y-66914944D01*
X154491435Y-66392560D01*
X154495717Y-66261753D01*
X154495717Y-65738247D01*
X154491435Y-65607440D01*
X154457196Y-65085056D01*
X154444368Y-64954811D01*
X154376037Y-64435784D01*
X154354717Y-64306654D01*
X154333004Y-64197500D01*
X154252590Y-63793224D01*
X154222867Y-63665749D01*
X154209470Y-63615752D01*
X154087375Y-63160085D01*
X154049382Y-63034842D01*
X153881106Y-62539119D01*
X153835007Y-62416636D01*
X153634671Y-61932980D01*
X153634666Y-61932968D01*
X153580660Y-61813773D01*
X153349112Y-61344242D01*
X153287423Y-61228829D01*
X153025673Y-60775466D01*
X153025667Y-60775456D01*
X152956556Y-60664317D01*
X152665712Y-60229038D01*
X152589480Y-60122656D01*
X152451114Y-59942333D01*
X152270792Y-59707332D01*
X152187764Y-59606163D01*
X152143914Y-59556162D01*
X151842592Y-59212570D01*
X151753127Y-59117048D01*
X151382952Y-58746873D01*
X151287430Y-58657408D01*
X150893838Y-58312237D01*
X150893836Y-58312235D01*
X150792667Y-58229207D01*
X150502986Y-58006928D01*
X150377344Y-57910520D01*
X150307569Y-57860520D01*
X150270964Y-57834289D01*
X150048834Y-57685867D01*
X149835683Y-57543444D01*
X149724544Y-57474333D01*
X149724533Y-57474326D01*
X149271170Y-57212576D01*
X149155757Y-57150887D01*
X148686226Y-56919339D01*
X148567031Y-56865333D01*
X148083370Y-56664995D01*
X147960869Y-56618889D01*
X147465160Y-56450618D01*
X147339918Y-56412625D01*
X146834250Y-56277132D01*
X146706775Y-56247409D01*
X146193364Y-56145286D01*
X146193346Y-56145283D01*
X146064216Y-56123963D01*
X146064211Y-56123962D01*
X146064203Y-56123961D01*
X145545196Y-56055632D01*
X145414956Y-56042805D01*
X145414950Y-56042804D01*
X145414944Y-56042804D01*
X144892560Y-56008565D01*
X144761753Y-56004283D01*
X144238247Y-56004283D01*
X144107440Y-56008565D01*
X143585056Y-56042804D01*
X143585051Y-56042804D01*
X143585043Y-56042805D01*
X143454803Y-56055632D01*
X142935796Y-56123961D01*
X142806635Y-56145286D01*
X142293224Y-56247409D01*
X142165749Y-56277132D01*
X141660081Y-56412625D01*
X141534839Y-56450618D01*
X141039130Y-56618889D01*
X140916629Y-56664995D01*
X140432968Y-56865333D01*
X140313773Y-56919339D01*
X139844242Y-57150887D01*
X139728829Y-57212576D01*
X139275466Y-57474326D01*
X139164309Y-57543449D01*
X138729035Y-57834289D01*
X138622657Y-57910519D01*
X138207332Y-58229207D01*
X138106163Y-58312235D01*
X137769592Y-58607401D01*
X137712570Y-58657408D01*
X137670433Y-58696873D01*
X137617033Y-58746887D01*
X137246887Y-59117033D01*
X137157401Y-59212578D01*
X136812235Y-59606163D01*
X136729207Y-59707332D01*
X136410519Y-60122657D01*
X136334289Y-60229035D01*
X136043449Y-60664309D01*
X135974326Y-60775466D01*
X135712576Y-61228829D01*
X135650887Y-61344242D01*
X135419339Y-61813773D01*
X135365333Y-61932968D01*
X135164995Y-62416629D01*
X135118889Y-62539130D01*
X134950618Y-63034839D01*
X134912625Y-63160081D01*
X134777132Y-63665749D01*
X134747409Y-63793224D01*
X134645286Y-64306635D01*
X134623961Y-64435796D01*
X134555632Y-64954803D01*
X134543493Y-65078056D01*
X134542804Y-65085056D01*
X134508565Y-65607440D01*
X134505920Y-65688258D01*
X134504283Y-65738258D01*
X134504283Y-66261741D01*
X134508565Y-66392556D01*
X134542805Y-66914956D01*
X134555632Y-67045196D01*
X134623961Y-67564203D01*
X134645286Y-67693364D01*
X134747409Y-68206775D01*
X134777132Y-68334250D01*
X134912625Y-68839918D01*
X134950618Y-68965160D01*
X135118889Y-69460869D01*
X135164995Y-69583370D01*
X135365333Y-70067031D01*
X135419339Y-70186226D01*
X135650887Y-70655757D01*
X135712576Y-70771170D01*
X135974326Y-71224533D01*
X135974333Y-71224544D01*
X136043444Y-71335683D01*
X136334288Y-71770962D01*
X136410520Y-71877344D01*
X136581381Y-72100014D01*
X136606575Y-72165183D01*
X136592537Y-72233628D01*
X136543723Y-72283617D01*
X136483005Y-72299500D01*
X121186669Y-72299500D01*
X121186653Y-72299499D01*
X121179057Y-72299499D01*
X121020943Y-72299499D01*
X120913587Y-72328265D01*
X120868210Y-72340424D01*
X120868209Y-72340425D01*
X120818096Y-72369359D01*
X120818095Y-72369360D01*
X120775701Y-72393836D01*
X120731285Y-72419479D01*
X120731282Y-72419481D01*
X120619478Y-72531286D01*
X111794526Y-81356237D01*
X111733203Y-81389722D01*
X111680478Y-81389158D01*
X111680448Y-81389349D01*
X111679156Y-81389144D01*
X111677903Y-81389131D01*
X111675636Y-81388586D01*
X111493232Y-81359697D01*
X111479361Y-81357500D01*
X111280639Y-81357500D01*
X111258920Y-81360940D01*
X111084362Y-81388587D01*
X110895370Y-81449993D01*
X110895367Y-81449994D01*
X110718305Y-81540213D01*
X110557533Y-81657021D01*
X110417018Y-81797536D01*
X110359239Y-81877061D01*
X110346604Y-81891854D01*
X110250413Y-81988046D01*
X110250405Y-81988056D01*
X110166435Y-82130042D01*
X110166434Y-82130045D01*
X110120413Y-82288447D01*
X110120412Y-82288453D01*
X110117500Y-82325458D01*
X109000500Y-82325458D01*
X109000500Y-65415458D01*
X110117500Y-65415458D01*
X110117500Y-67674541D01*
X110120412Y-67711546D01*
X110120413Y-67711552D01*
X110166434Y-67869954D01*
X110166435Y-67869957D01*
X110250405Y-68011943D01*
X110250406Y-68011944D01*
X110250408Y-68011947D01*
X110346608Y-68108147D01*
X110359240Y-68122938D01*
X110417019Y-68202464D01*
X110557536Y-68342981D01*
X110718306Y-68459787D01*
X110805149Y-68504035D01*
X110895367Y-68550005D01*
X110895370Y-68550006D01*
X110989866Y-68580709D01*
X111084364Y-68611413D01*
X111280639Y-68642500D01*
X111280640Y-68642500D01*
X111479360Y-68642500D01*
X111479361Y-68642500D01*
X111675636Y-68611413D01*
X111864632Y-68550005D01*
X112041694Y-68459787D01*
X112202464Y-68342981D01*
X112342981Y-68202464D01*
X112400762Y-68122933D01*
X112406007Y-68116213D01*
X112409518Y-68112019D01*
X112509592Y-68011947D01*
X112548718Y-67945787D01*
X112555220Y-67938024D01*
X112576198Y-67924035D01*
X112594626Y-67906830D01*
X112604772Y-67904984D01*
X112613353Y-67899263D01*
X112638565Y-67898837D01*
X112663368Y-67894326D01*
X112672899Y-67898258D01*
X112683212Y-67898084D01*
X112704650Y-67911356D01*
X112727958Y-67920971D01*
X112736956Y-67931355D01*
X112742620Y-67934862D01*
X112745838Y-67941606D01*
X112757022Y-67954513D01*
X112790803Y-68011634D01*
X112790807Y-68011639D01*
X112862807Y-68083638D01*
X113482352Y-67464093D01*
X113505792Y-67551571D01*
X113564311Y-67652930D01*
X113647070Y-67735689D01*
X113748429Y-67794208D01*
X113835905Y-67817647D01*
X113221283Y-68432268D01*
X113221283Y-68432269D01*
X113258567Y-68459358D01*
X113435562Y-68549542D01*
X113624477Y-68610924D01*
X113820679Y-68642000D01*
X114019321Y-68642000D01*
X114215520Y-68610924D01*
X114215523Y-68610924D01*
X114404437Y-68549542D01*
X114581425Y-68459362D01*
X114618716Y-68432268D01*
X114004095Y-67817647D01*
X114091571Y-67794208D01*
X114192930Y-67735689D01*
X114275689Y-67652930D01*
X114334208Y-67551571D01*
X114357647Y-67464094D01*
X114977191Y-68083639D01*
X115049195Y-68011635D01*
X115082976Y-67954514D01*
X115134045Y-67906830D01*
X115202787Y-67894326D01*
X115267376Y-67920971D01*
X115284779Y-67938024D01*
X115291283Y-67945791D01*
X115330408Y-68011947D01*
X115430480Y-68112019D01*
X115433992Y-68116213D01*
X115434509Y-68117399D01*
X115439240Y-68122938D01*
X115497019Y-68202464D01*
X115637536Y-68342981D01*
X115798306Y-68459787D01*
X115885149Y-68504035D01*
X115975367Y-68550005D01*
X115975370Y-68550006D01*
X116069866Y-68580709D01*
X116164364Y-68611413D01*
X116360639Y-68642500D01*
X116360640Y-68642500D01*
X116559360Y-68642500D01*
X116559361Y-68642500D01*
X116755636Y-68611413D01*
X116944632Y-68550005D01*
X117121694Y-68459787D01*
X117282464Y-68342981D01*
X117422981Y-68202464D01*
X117480762Y-68122933D01*
X117486039Y-68116175D01*
X117489537Y-68112000D01*
X117589592Y-68011947D01*
X117628439Y-67946259D01*
X117634962Y-67938477D01*
X117655927Y-67924509D01*
X117674337Y-67907321D01*
X117684505Y-67905471D01*
X117693110Y-67899739D01*
X117718299Y-67899324D01*
X117743079Y-67894817D01*
X117752634Y-67898759D01*
X117762970Y-67898589D01*
X117784379Y-67911854D01*
X117807668Y-67921462D01*
X117816691Y-67931875D01*
X117822363Y-67935390D01*
X117825575Y-67942128D01*
X117836732Y-67955004D01*
X117870405Y-68011943D01*
X117870408Y-68011947D01*
X117966608Y-68108147D01*
X117979240Y-68122938D01*
X118037019Y-68202464D01*
X118177536Y-68342981D01*
X118338306Y-68459787D01*
X118425149Y-68504035D01*
X118515367Y-68550005D01*
X118515370Y-68550006D01*
X118609866Y-68580709D01*
X118704364Y-68611413D01*
X118900639Y-68642500D01*
X118900640Y-68642500D01*
X119099360Y-68642500D01*
X119099361Y-68642500D01*
X119295636Y-68611413D01*
X119484632Y-68550005D01*
X119661694Y-68459787D01*
X119822464Y-68342981D01*
X119962981Y-68202464D01*
X120020762Y-68122933D01*
X120026039Y-68116175D01*
X120029537Y-68112000D01*
X120129592Y-68011947D01*
X120168439Y-67946259D01*
X120174962Y-67938477D01*
X120195927Y-67924509D01*
X120214337Y-67907321D01*
X120224505Y-67905471D01*
X120233110Y-67899739D01*
X120258299Y-67899324D01*
X120283079Y-67894817D01*
X120292634Y-67898759D01*
X120302970Y-67898589D01*
X120324379Y-67911854D01*
X120347668Y-67921462D01*
X120356691Y-67931875D01*
X120362363Y-67935390D01*
X120365575Y-67942128D01*
X120376732Y-67955004D01*
X120410405Y-68011943D01*
X120410408Y-68011947D01*
X120506608Y-68108147D01*
X120519240Y-68122938D01*
X120577019Y-68202464D01*
X120717536Y-68342981D01*
X120878306Y-68459787D01*
X120965149Y-68504035D01*
X121055367Y-68550005D01*
X121055370Y-68550006D01*
X121149866Y-68580709D01*
X121244364Y-68611413D01*
X121440639Y-68642500D01*
X121440640Y-68642500D01*
X121639360Y-68642500D01*
X121639361Y-68642500D01*
X121835636Y-68611413D01*
X122024632Y-68550005D01*
X122201694Y-68459787D01*
X122362464Y-68342981D01*
X122502981Y-68202464D01*
X122560762Y-68122933D01*
X122566039Y-68116175D01*
X122569537Y-68112000D01*
X122669592Y-68011947D01*
X122708439Y-67946259D01*
X122714962Y-67938477D01*
X122735927Y-67924509D01*
X122754337Y-67907321D01*
X122764505Y-67905471D01*
X122773110Y-67899739D01*
X122798299Y-67899324D01*
X122823079Y-67894817D01*
X122832634Y-67898759D01*
X122842970Y-67898589D01*
X122864379Y-67911854D01*
X122887668Y-67921462D01*
X122896691Y-67931875D01*
X122902363Y-67935390D01*
X122905575Y-67942128D01*
X122916732Y-67955004D01*
X122950405Y-68011943D01*
X122950408Y-68011947D01*
X123046608Y-68108147D01*
X123059240Y-68122938D01*
X123117019Y-68202464D01*
X123257536Y-68342981D01*
X123418306Y-68459787D01*
X123505149Y-68504035D01*
X123595367Y-68550005D01*
X123595370Y-68550006D01*
X123689866Y-68580709D01*
X123784364Y-68611413D01*
X123980639Y-68642500D01*
X123980640Y-68642500D01*
X124179360Y-68642500D01*
X124179361Y-68642500D01*
X124375636Y-68611413D01*
X124564632Y-68550005D01*
X124741694Y-68459787D01*
X124902464Y-68342981D01*
X125042981Y-68202464D01*
X125100762Y-68122933D01*
X125106039Y-68116175D01*
X125109537Y-68112000D01*
X125209592Y-68011947D01*
X125248439Y-67946259D01*
X125254962Y-67938477D01*
X125275927Y-67924509D01*
X125294337Y-67907321D01*
X125304505Y-67905471D01*
X125313110Y-67899739D01*
X125338299Y-67899324D01*
X125363079Y-67894817D01*
X125372634Y-67898759D01*
X125382970Y-67898589D01*
X125404379Y-67911854D01*
X125427668Y-67921462D01*
X125436691Y-67931875D01*
X125442363Y-67935390D01*
X125445575Y-67942128D01*
X125456732Y-67955004D01*
X125490405Y-68011943D01*
X125490408Y-68011947D01*
X125586608Y-68108147D01*
X125599240Y-68122938D01*
X125657019Y-68202464D01*
X125797536Y-68342981D01*
X125958306Y-68459787D01*
X126045149Y-68504035D01*
X126135367Y-68550005D01*
X126135370Y-68550006D01*
X126229866Y-68580709D01*
X126324364Y-68611413D01*
X126520639Y-68642500D01*
X126520640Y-68642500D01*
X126719360Y-68642500D01*
X126719361Y-68642500D01*
X126915636Y-68611413D01*
X127104632Y-68550005D01*
X127281694Y-68459787D01*
X127442464Y-68342981D01*
X127582981Y-68202464D01*
X127640760Y-68122936D01*
X127653389Y-68108148D01*
X127749592Y-68011947D01*
X127833564Y-67869959D01*
X127879587Y-67711548D01*
X127882500Y-67674534D01*
X127882500Y-65415466D01*
X127879587Y-65378452D01*
X127833564Y-65220041D01*
X127749592Y-65078053D01*
X127749590Y-65078051D01*
X127749587Y-65078047D01*
X127632952Y-64961412D01*
X127632943Y-64961405D01*
X127522718Y-64896218D01*
X127490959Y-64877436D01*
X127490958Y-64877435D01*
X127490957Y-64877435D01*
X127490954Y-64877434D01*
X127332552Y-64831413D01*
X127332546Y-64831412D01*
X127295541Y-64828500D01*
X127295534Y-64828500D01*
X125944466Y-64828500D01*
X125944458Y-64828500D01*
X125907453Y-64831412D01*
X125907447Y-64831413D01*
X125749045Y-64877434D01*
X125749042Y-64877435D01*
X125607056Y-64961405D01*
X125607047Y-64961412D01*
X125490412Y-65078047D01*
X125490408Y-65078053D01*
X125456732Y-65134996D01*
X125405662Y-65182679D01*
X125336921Y-65195182D01*
X125272331Y-65168536D01*
X125243268Y-65134996D01*
X125209592Y-65078053D01*
X125209589Y-65078050D01*
X125209587Y-65078047D01*
X125092952Y-64961412D01*
X125092943Y-64961405D01*
X124982718Y-64896218D01*
X124950959Y-64877436D01*
X124950958Y-64877435D01*
X124950957Y-64877435D01*
X124950954Y-64877434D01*
X124792552Y-64831413D01*
X124792546Y-64831412D01*
X124755541Y-64828500D01*
X124755534Y-64828500D01*
X123404466Y-64828500D01*
X123404458Y-64828500D01*
X123367453Y-64831412D01*
X123367447Y-64831413D01*
X123209045Y-64877434D01*
X123209042Y-64877435D01*
X123067056Y-64961405D01*
X123067047Y-64961412D01*
X122950412Y-65078047D01*
X122950408Y-65078053D01*
X122916732Y-65134996D01*
X122865662Y-65182679D01*
X122796921Y-65195182D01*
X122732331Y-65168536D01*
X122703268Y-65134996D01*
X122669592Y-65078053D01*
X122669589Y-65078050D01*
X122669587Y-65078047D01*
X122552952Y-64961412D01*
X122552943Y-64961405D01*
X122442718Y-64896218D01*
X122410959Y-64877436D01*
X122410958Y-64877435D01*
X122410957Y-64877435D01*
X122410954Y-64877434D01*
X122252552Y-64831413D01*
X122252546Y-64831412D01*
X122215541Y-64828500D01*
X122215534Y-64828500D01*
X120864466Y-64828500D01*
X120864458Y-64828500D01*
X120827453Y-64831412D01*
X120827447Y-64831413D01*
X120669045Y-64877434D01*
X120669042Y-64877435D01*
X120527056Y-64961405D01*
X120527047Y-64961412D01*
X120410412Y-65078047D01*
X120410408Y-65078053D01*
X120376732Y-65134996D01*
X120325662Y-65182679D01*
X120256921Y-65195182D01*
X120192331Y-65168536D01*
X120163268Y-65134996D01*
X120129592Y-65078053D01*
X120129589Y-65078050D01*
X120129587Y-65078047D01*
X120012952Y-64961412D01*
X120012943Y-64961405D01*
X119902718Y-64896218D01*
X119870959Y-64877436D01*
X119870958Y-64877435D01*
X119870957Y-64877435D01*
X119870954Y-64877434D01*
X119712552Y-64831413D01*
X119712546Y-64831412D01*
X119675541Y-64828500D01*
X119675534Y-64828500D01*
X118324466Y-64828500D01*
X118324458Y-64828500D01*
X118287453Y-64831412D01*
X118287447Y-64831413D01*
X118129045Y-64877434D01*
X118129042Y-64877435D01*
X117987056Y-64961405D01*
X117987047Y-64961412D01*
X117870412Y-65078047D01*
X117870408Y-65078053D01*
X117836732Y-65134996D01*
X117785662Y-65182679D01*
X117716921Y-65195182D01*
X117652331Y-65168536D01*
X117623268Y-65134996D01*
X117589592Y-65078053D01*
X117589589Y-65078050D01*
X117589587Y-65078047D01*
X117472952Y-64961412D01*
X117472943Y-64961405D01*
X117362718Y-64896218D01*
X117330959Y-64877436D01*
X117330958Y-64877435D01*
X117330957Y-64877435D01*
X117330954Y-64877434D01*
X117172552Y-64831413D01*
X117172546Y-64831412D01*
X117135541Y-64828500D01*
X117135534Y-64828500D01*
X115784466Y-64828500D01*
X115784458Y-64828500D01*
X115747453Y-64831412D01*
X115747447Y-64831413D01*
X115589045Y-64877434D01*
X115589042Y-64877435D01*
X115447056Y-64961405D01*
X115447047Y-64961412D01*
X115330412Y-65078047D01*
X115330403Y-65078058D01*
X115296440Y-65135487D01*
X115245371Y-65183170D01*
X115176629Y-65195673D01*
X115112040Y-65169027D01*
X115082977Y-65135486D01*
X115049195Y-65078364D01*
X115049189Y-65078356D01*
X114932643Y-64961810D01*
X114932634Y-64961803D01*
X114790756Y-64877897D01*
X114790753Y-64877896D01*
X114632473Y-64831911D01*
X114632467Y-64831910D01*
X114595481Y-64829000D01*
X113244530Y-64829000D01*
X113244508Y-64829001D01*
X113207533Y-64831910D01*
X113049242Y-64877897D01*
X112907365Y-64961803D01*
X112907356Y-64961810D01*
X112790810Y-65078356D01*
X112790801Y-65078367D01*
X112757021Y-65135487D01*
X112705952Y-65183170D01*
X112637210Y-65195673D01*
X112572621Y-65169027D01*
X112543558Y-65135486D01*
X112509594Y-65078056D01*
X112509587Y-65078047D01*
X112392952Y-64961412D01*
X112392943Y-64961405D01*
X112282718Y-64896218D01*
X112250959Y-64877436D01*
X112250958Y-64877435D01*
X112250957Y-64877435D01*
X112250954Y-64877434D01*
X112092552Y-64831413D01*
X112092546Y-64831412D01*
X112055541Y-64828500D01*
X112055534Y-64828500D01*
X110704466Y-64828500D01*
X110704458Y-64828500D01*
X110667453Y-64831412D01*
X110667447Y-64831413D01*
X110509045Y-64877434D01*
X110509042Y-64877435D01*
X110367056Y-64961405D01*
X110367047Y-64961412D01*
X110250412Y-65078047D01*
X110250405Y-65078056D01*
X110166435Y-65220042D01*
X110166434Y-65220045D01*
X110120413Y-65378447D01*
X110120412Y-65378453D01*
X110117500Y-65415458D01*
X109000500Y-65415458D01*
X109000500Y-56002706D01*
X109000618Y-55997297D01*
X109003377Y-55934108D01*
X109017386Y-55613226D01*
X109018326Y-55602495D01*
X109068152Y-55224025D01*
X109070025Y-55213405D01*
X109152649Y-54840709D01*
X109155440Y-54830295D01*
X109270230Y-54466227D01*
X109273917Y-54456095D01*
X109420003Y-54103412D01*
X109424561Y-54093638D01*
X109600822Y-53755045D01*
X109606217Y-53745700D01*
X109811325Y-53423744D01*
X109817515Y-53414905D01*
X110049896Y-53112060D01*
X110056834Y-53103791D01*
X110314726Y-52822352D01*
X110322352Y-52814726D01*
X110603791Y-52556834D01*
X110612060Y-52549896D01*
X110914905Y-52317515D01*
X110923744Y-52311325D01*
X111245700Y-52106217D01*
X111255045Y-52100822D01*
X111593638Y-51924561D01*
X111603412Y-51920003D01*
X111956095Y-51773917D01*
X111966227Y-51770230D01*
X112330295Y-51655440D01*
X112340709Y-51652649D01*
X112713405Y-51570025D01*
X112724025Y-51568152D01*
X113102495Y-51518326D01*
X113113226Y-51517386D01*
X113497297Y-51500617D01*
X113502706Y-51500500D01*
X113565892Y-51500500D01*
X203434108Y-51500500D01*
X203497294Y-51500500D01*
X203502702Y-51500617D01*
G37*
%TD.AperFunction*%
%TD*%
M02*
