M48
; DRILL file {KiCad 9.0.7} date 2026-03-29T18:14:59+0530
; FORMAT={-:-/ absolute / metric / decimal}
; #@! TF.CreationDate,2026-03-29T18:14:59+05:30
; #@! TF.GenerationSoftware,Kicad,Pcbnew,9.0.7
; #@! TF.FileFunction,Plated,1,2,PTH
FMAT,2
METRIC
; #@! TA.AperFunction,Plated,PTH,ViaDrill
T1C0.300
; #@! TA.AperFunction,Plated,PTH,ComponentDrill
T2C0.889
; #@! TA.AperFunction,Plated,PTH,ComponentDrill
T3C1.000
%
G90
G05
T1
X147.7Y-76.05
X176.0Y-111.25
X197.0Y-112.6
T2
X111.38Y-67.38
X111.38Y-82.62
X113.92Y-67.38
X113.92Y-82.62
X116.46Y-67.38
X116.46Y-82.62
X119.0Y-67.38
X119.0Y-82.62
X121.54Y-67.38
X121.54Y-82.62
X124.08Y-67.38
X124.08Y-82.62
X126.62Y-67.38
X126.62Y-82.62
T3
X147.71Y-80.19
X147.71Y-82.73
X147.71Y-85.27
X147.71Y-87.81
M30
