%TF.GenerationSoftware,KiCad,Pcbnew,9.0.7*%
%TF.CreationDate,2026-03-29T18:14:53+05:30*%
%TF.ProjectId,chopsticks,63686f70-7374-4696-936b-732e6b696361,rev?*%
%TF.SameCoordinates,Original*%
%TF.FileFunction,Legend,Top*%
%TF.FilePolarity,Positive*%
%FSLAX46Y46*%
G04 Gerber Fmt 4.6, Leading zero omitted, Abs format (unit mm)*
G04 Created by KiCad (PCBNEW 9.0.7) date 2026-03-29 18:14:53*
%MOMM*%
%LPD*%
G01*
G04 APERTURE LIST*
%ADD10C,0.100000*%
%ADD11C,0.150000*%
%ADD12C,0.127000*%
%ADD13C,0.504000*%
G04 APERTURE END LIST*
D10*
G36*
X112826276Y-56492432D02*
G01*
X112687342Y-56481612D01*
X112569696Y-56451036D01*
X112469599Y-56402389D01*
X112384197Y-56335751D01*
X112314882Y-56252634D01*
X112264567Y-56155170D01*
X112233044Y-56040533D01*
X112221897Y-55904906D01*
X112221897Y-54981546D01*
X112233045Y-54845853D01*
X112264572Y-54731176D01*
X112314887Y-54633695D01*
X112384197Y-54550580D01*
X112469599Y-54483941D01*
X112569696Y-54435294D01*
X112687342Y-54404718D01*
X112826276Y-54393898D01*
X112962059Y-54404720D01*
X113077857Y-54435416D01*
X113177196Y-54484487D01*
X113262738Y-54552045D01*
X113332216Y-54635823D01*
X113382524Y-54733378D01*
X113413954Y-54847404D01*
X113425038Y-54981546D01*
X113173223Y-54981546D01*
X113161965Y-54869340D01*
X113130993Y-54782160D01*
X113082243Y-54714344D01*
X113016090Y-54663701D01*
X112932479Y-54631979D01*
X112826276Y-54620555D01*
X112720010Y-54631911D01*
X112635318Y-54663590D01*
X112567379Y-54714344D01*
X112517075Y-54782373D01*
X112485253Y-54869561D01*
X112473712Y-54981546D01*
X112473712Y-55904906D01*
X112485247Y-56016811D01*
X112517065Y-56104007D01*
X112567379Y-56172108D01*
X112635309Y-56222791D01*
X112720001Y-56254432D01*
X112826276Y-56265775D01*
X112932489Y-56254364D01*
X113016100Y-56222680D01*
X113082243Y-56172108D01*
X113131003Y-56104220D01*
X113161971Y-56017031D01*
X113173223Y-55904906D01*
X113425038Y-55904906D01*
X113413957Y-56038980D01*
X113382533Y-56152990D01*
X113332226Y-56250570D01*
X113262738Y-56334407D01*
X113177204Y-56401909D01*
X113077868Y-56450942D01*
X112962067Y-56481617D01*
X112826276Y-56492432D01*
G37*
G36*
X113900334Y-56464467D02*
G01*
X113900334Y-54421864D01*
X114152149Y-54421864D01*
X114152149Y-55219316D01*
X114154957Y-55219316D01*
X114178575Y-55121997D01*
X114220513Y-55043995D01*
X114280865Y-54981546D01*
X114356023Y-54936408D01*
X114448721Y-54907806D01*
X114563454Y-54897527D01*
X114677947Y-54907204D01*
X114775764Y-54934724D01*
X114859955Y-54978946D01*
X114932749Y-55040286D01*
X114991037Y-55115303D01*
X115033623Y-55203322D01*
X115060408Y-55306868D01*
X115069891Y-55429243D01*
X115069891Y-56464467D01*
X114818077Y-56464467D01*
X114818077Y-55471131D01*
X114807120Y-55358778D01*
X114777043Y-55271641D01*
X114729905Y-55204051D01*
X114665768Y-55152857D01*
X114587417Y-55121411D01*
X114490669Y-55110262D01*
X114390469Y-55121897D01*
X114309368Y-55154719D01*
X114243007Y-55208203D01*
X114194401Y-55278656D01*
X114163419Y-55369070D01*
X114152149Y-55485175D01*
X114152149Y-56464467D01*
X113900334Y-56464467D01*
G37*
G36*
X116299462Y-54914213D02*
G01*
X116417012Y-54945530D01*
X116517208Y-54995470D01*
X116602881Y-55064100D01*
X116671494Y-55149051D01*
X116721886Y-55250721D01*
X116753802Y-55372480D01*
X116765181Y-55518758D01*
X116765181Y-55871323D01*
X116753780Y-56015930D01*
X116721706Y-56137036D01*
X116670878Y-56238872D01*
X116601416Y-56324637D01*
X116514999Y-56394004D01*
X116414700Y-56444305D01*
X116297831Y-56475738D01*
X116160802Y-56486815D01*
X116023707Y-56475736D01*
X115906798Y-56444301D01*
X115806481Y-56393999D01*
X115720066Y-56324637D01*
X115650660Y-56238880D01*
X115599869Y-56137047D01*
X115567816Y-56015938D01*
X115556423Y-55871323D01*
X115556423Y-55518758D01*
X115558597Y-55490792D01*
X115808237Y-55490792D01*
X115808237Y-55899289D01*
X115820089Y-56014869D01*
X115852510Y-56103200D01*
X115903370Y-56170642D01*
X115971961Y-56220720D01*
X116056291Y-56251858D01*
X116160802Y-56262966D01*
X116267100Y-56251765D01*
X116351753Y-56220549D01*
X116419577Y-56170642D01*
X116469661Y-56103310D01*
X116501656Y-56014984D01*
X116513366Y-55899289D01*
X116513366Y-55490792D01*
X116501653Y-55375013D01*
X116469656Y-55286652D01*
X116419577Y-55219316D01*
X116351753Y-55169410D01*
X116267100Y-55138194D01*
X116160802Y-55126993D01*
X116056291Y-55138101D01*
X115971961Y-55169239D01*
X115903370Y-55219316D01*
X115852515Y-55286761D01*
X115820092Y-55375128D01*
X115808237Y-55490792D01*
X115558597Y-55490792D01*
X115567795Y-55372472D01*
X115599689Y-55250710D01*
X115650044Y-55149043D01*
X115718600Y-55064100D01*
X115804272Y-54995475D01*
X115904486Y-54945535D01*
X116022075Y-54914215D01*
X116160802Y-54903144D01*
X116299462Y-54914213D01*
G37*
G36*
X118042563Y-54907745D02*
G01*
X118140141Y-54936905D01*
X118224581Y-54984067D01*
X118298049Y-55050056D01*
X118355895Y-55129649D01*
X118398557Y-55223875D01*
X118425581Y-55335568D01*
X118435191Y-55468322D01*
X118435191Y-55918828D01*
X118425600Y-56051612D01*
X118398600Y-56163600D01*
X118355937Y-56258321D01*
X118298049Y-56338559D01*
X118224496Y-56405191D01*
X118140026Y-56452756D01*
X118042478Y-56482141D01*
X117928754Y-56492432D01*
X117815970Y-56482039D01*
X117722044Y-56452713D01*
X117643234Y-56405726D01*
X117579127Y-56341348D01*
X117535629Y-56264006D01*
X117511831Y-56170642D01*
X117503405Y-56170642D01*
X117509022Y-56520398D01*
X117509022Y-56968095D01*
X117257208Y-56968095D01*
X117257208Y-55485175D01*
X117509022Y-55485175D01*
X117509022Y-55904906D01*
X117520165Y-56017106D01*
X117551030Y-56105840D01*
X117599881Y-56176260D01*
X117666178Y-56229883D01*
X117746418Y-56262638D01*
X117844734Y-56274201D01*
X117947891Y-56263905D01*
X118029293Y-56235403D01*
X118093740Y-56190304D01*
X118140754Y-56128172D01*
X118171721Y-56040574D01*
X118183377Y-55918828D01*
X118183377Y-55471131D01*
X118171623Y-55347460D01*
X118140581Y-55259621D01*
X118093740Y-55198312D01*
X118029397Y-55153987D01*
X117947997Y-55125911D01*
X117844734Y-55115757D01*
X117746418Y-55127321D01*
X117666178Y-55160076D01*
X117599881Y-55213699D01*
X117551036Y-55284121D01*
X117520167Y-55372892D01*
X117509022Y-55485175D01*
X117257208Y-55485175D01*
X117257208Y-54925492D01*
X117509022Y-54925492D01*
X117509022Y-55219316D01*
X117511831Y-55219316D01*
X117535772Y-55124234D01*
X117579338Y-55046541D01*
X117643234Y-54982889D01*
X117721949Y-54936672D01*
X117815879Y-54907776D01*
X117928754Y-54897527D01*
X118042563Y-54907745D01*
G37*
G36*
X119456126Y-56486815D02*
G01*
X119326192Y-56478442D01*
X119218854Y-56455153D01*
X119130300Y-56418961D01*
X119057400Y-56370799D01*
X118996501Y-56307902D01*
X118952857Y-56233794D01*
X118925698Y-56146229D01*
X118916105Y-56041926D01*
X119167920Y-56041926D01*
X119176725Y-56109205D01*
X119201779Y-56163707D01*
X119243391Y-56208500D01*
X119297015Y-56240345D01*
X119366474Y-56261005D01*
X119456126Y-56268584D01*
X119579225Y-56268584D01*
X119670609Y-56260821D01*
X119741378Y-56239660D01*
X119795990Y-56207035D01*
X119838228Y-56161179D01*
X119863857Y-56104505D01*
X119872927Y-56033622D01*
X119860283Y-55940901D01*
X119826339Y-55876940D01*
X119771917Y-55833844D01*
X119691088Y-55809774D01*
X119265861Y-55748224D01*
X119166581Y-55722797D01*
X119086625Y-55679424D01*
X119022351Y-55618043D01*
X118975628Y-55541851D01*
X118946185Y-55448662D01*
X118935645Y-55334111D01*
X118944912Y-55235673D01*
X118971316Y-55151943D01*
X119014065Y-55080017D01*
X119074131Y-55017938D01*
X119145749Y-54969932D01*
X119231379Y-54934152D01*
X119333727Y-54911307D01*
X119456126Y-54903144D01*
X119579225Y-54903144D01*
X119724761Y-54916476D01*
X119844773Y-54953930D01*
X119944368Y-55013664D01*
X120007485Y-55073927D01*
X120053111Y-55141330D01*
X120082832Y-55217126D01*
X120096775Y-55303336D01*
X119842152Y-55303336D01*
X119831318Y-55252728D01*
X119806261Y-55208486D01*
X119765216Y-55169002D01*
X119715100Y-55140364D01*
X119654005Y-55122246D01*
X119579225Y-55115757D01*
X119456126Y-55115757D01*
X119372171Y-55123102D01*
X119306286Y-55143263D01*
X119254626Y-55174620D01*
X119214369Y-55218181D01*
X119190265Y-55270422D01*
X119181842Y-55334111D01*
X119192130Y-55409862D01*
X119219812Y-55462479D01*
X119264226Y-55498266D01*
X119330097Y-55518758D01*
X119727480Y-55574690D01*
X119852486Y-55604854D01*
X119948265Y-55652624D01*
X120020749Y-55716740D01*
X120073463Y-55798649D01*
X120107066Y-55902295D01*
X120119246Y-56033622D01*
X120109650Y-56139346D01*
X120082471Y-56228314D01*
X120038806Y-56303780D01*
X119977951Y-56367991D01*
X119904867Y-56417417D01*
X119816243Y-56454467D01*
X119708968Y-56478266D01*
X119579225Y-56486815D01*
X119456126Y-56486815D01*
G37*
G36*
X121349985Y-56464467D02*
G01*
X121227566Y-56451284D01*
X121127512Y-56414110D01*
X121044926Y-56353947D01*
X120982218Y-56273786D01*
X120943816Y-56177011D01*
X120930254Y-56058779D01*
X120930254Y-55154958D01*
X120488175Y-55154958D01*
X120488175Y-54925492D01*
X120930254Y-54925492D01*
X120930254Y-54491839D01*
X121182068Y-54491839D01*
X121182068Y-54925492D01*
X121811604Y-54925492D01*
X121811604Y-55154958D01*
X121182068Y-55154958D01*
X121182068Y-56058779D01*
X121194064Y-56130970D01*
X121228230Y-56186030D01*
X121280830Y-56222384D01*
X121349985Y-56235000D01*
X121797683Y-56235000D01*
X121797683Y-56464467D01*
X121349985Y-56464467D01*
G37*
G36*
X122272979Y-56464467D02*
G01*
X122272979Y-56235000D01*
X122818496Y-56235000D01*
X122818496Y-55154958D01*
X122328911Y-55154958D01*
X122328911Y-54925492D01*
X123070310Y-54925492D01*
X123070310Y-56235000D01*
X123587983Y-56235000D01*
X123587983Y-56464467D01*
X122272979Y-56464467D01*
G37*
G36*
X122916437Y-54648521D02*
G01*
X122831476Y-54635831D01*
X122770990Y-54601016D01*
X122731597Y-54546100D01*
X122717867Y-54472300D01*
X122731678Y-54395733D01*
X122770990Y-54339309D01*
X122831604Y-54303375D01*
X122916437Y-54290339D01*
X123001270Y-54303375D01*
X123061884Y-54339309D01*
X123101291Y-54395743D01*
X123115128Y-54472300D01*
X123101371Y-54546089D01*
X123061884Y-54601016D01*
X123001398Y-54635831D01*
X122916437Y-54648521D01*
G37*
G36*
X124575334Y-56492432D02*
G01*
X124436524Y-56481696D01*
X124317815Y-56451233D01*
X124215739Y-56402578D01*
X124127637Y-56335751D01*
X124055678Y-56252276D01*
X124003669Y-56154678D01*
X123971186Y-56040168D01*
X123959720Y-55904906D01*
X123959720Y-55485175D01*
X123971188Y-55349847D01*
X124003674Y-55235297D01*
X124055683Y-55137682D01*
X124127637Y-55054208D01*
X124215739Y-54987380D01*
X124317815Y-54938726D01*
X124436524Y-54908263D01*
X124575334Y-54897527D01*
X124707517Y-54907309D01*
X124821222Y-54935102D01*
X124919525Y-54979482D01*
X125004835Y-55040286D01*
X125076080Y-55116907D01*
X125128239Y-55205631D01*
X125162144Y-55308681D01*
X125176904Y-55429243D01*
X124925090Y-55429243D01*
X124909156Y-55334585D01*
X124875350Y-55259987D01*
X124824340Y-55201120D01*
X124758534Y-55158188D01*
X124676946Y-55131106D01*
X124575334Y-55121375D01*
X124468949Y-55132602D01*
X124382200Y-55164199D01*
X124310819Y-55215164D01*
X124257247Y-55283638D01*
X124223658Y-55370841D01*
X124211535Y-55482366D01*
X124211535Y-55904906D01*
X124223620Y-56016382D01*
X124257186Y-56104090D01*
X124310819Y-56173451D01*
X124382300Y-56225200D01*
X124469049Y-56257219D01*
X124575334Y-56268584D01*
X124676844Y-56258710D01*
X124758433Y-56231200D01*
X124824340Y-56187495D01*
X124875557Y-56127816D01*
X124909284Y-56053571D01*
X124925090Y-55960838D01*
X125176904Y-55960838D01*
X125162149Y-56081333D01*
X125128249Y-56184367D01*
X125076090Y-56273115D01*
X125004835Y-56349794D01*
X124919533Y-56410543D01*
X124821232Y-56454885D01*
X124707524Y-56482657D01*
X124575334Y-56492432D01*
G37*
G36*
X125663314Y-56464467D02*
G01*
X125663314Y-54421864D01*
X125915251Y-54421864D01*
X125915251Y-55560646D01*
X126208953Y-55560646D01*
X126639919Y-54925492D01*
X126928126Y-54925492D01*
X126432801Y-55658587D01*
X126956091Y-56464467D01*
X126662267Y-56464467D01*
X126214570Y-55778999D01*
X125915251Y-55778999D01*
X125915251Y-56464467D01*
X125663314Y-56464467D01*
G37*
G36*
X127848311Y-56486815D02*
G01*
X127718376Y-56478442D01*
X127611038Y-56455153D01*
X127522484Y-56418961D01*
X127449584Y-56370799D01*
X127388685Y-56307902D01*
X127345041Y-56233794D01*
X127317882Y-56146229D01*
X127308290Y-56041926D01*
X127560104Y-56041926D01*
X127568909Y-56109205D01*
X127593963Y-56163707D01*
X127635575Y-56208500D01*
X127689199Y-56240345D01*
X127758659Y-56261005D01*
X127848311Y-56268584D01*
X127971409Y-56268584D01*
X128062793Y-56260821D01*
X128133563Y-56239660D01*
X128188175Y-56207035D01*
X128230412Y-56161179D01*
X128256042Y-56104505D01*
X128265111Y-56033622D01*
X128252467Y-55940901D01*
X128218523Y-55876940D01*
X128164101Y-55833844D01*
X128083272Y-55809774D01*
X127658045Y-55748224D01*
X127558765Y-55722797D01*
X127478810Y-55679424D01*
X127414535Y-55618043D01*
X127367813Y-55541851D01*
X127338369Y-55448662D01*
X127327829Y-55334111D01*
X127337096Y-55235673D01*
X127363500Y-55151943D01*
X127406249Y-55080017D01*
X127466315Y-55017938D01*
X127537934Y-54969932D01*
X127623563Y-54934152D01*
X127725911Y-54911307D01*
X127848311Y-54903144D01*
X127971409Y-54903144D01*
X128116945Y-54916476D01*
X128236957Y-54953930D01*
X128336552Y-55013664D01*
X128399669Y-55073927D01*
X128445295Y-55141330D01*
X128475016Y-55217126D01*
X128488960Y-55303336D01*
X128234336Y-55303336D01*
X128223502Y-55252728D01*
X128198445Y-55208486D01*
X128157400Y-55169002D01*
X128107285Y-55140364D01*
X128046189Y-55122246D01*
X127971409Y-55115757D01*
X127848311Y-55115757D01*
X127764355Y-55123102D01*
X127698470Y-55143263D01*
X127646810Y-55174620D01*
X127606553Y-55218181D01*
X127582450Y-55270422D01*
X127574026Y-55334111D01*
X127584315Y-55409862D01*
X127611997Y-55462479D01*
X127656410Y-55498266D01*
X127722281Y-55518758D01*
X128119664Y-55574690D01*
X128244670Y-55604854D01*
X128340449Y-55652624D01*
X128412934Y-55716740D01*
X128465647Y-55798649D01*
X128499250Y-55902295D01*
X128511430Y-56033622D01*
X128501835Y-56139346D01*
X128474655Y-56228314D01*
X128430990Y-56303780D01*
X128370135Y-56367991D01*
X128297052Y-56417417D01*
X128208427Y-56454467D01*
X128101152Y-56478266D01*
X127971409Y-56486815D01*
X127848311Y-56486815D01*
G37*
G36*
X131093199Y-56464467D02*
G01*
X130567222Y-54421864D01*
X130824654Y-54421864D01*
X131174410Y-55812582D01*
X131234493Y-56081127D01*
X131269542Y-56268584D01*
X131307156Y-56079784D01*
X131370170Y-55809774D01*
X131706004Y-54421864D01*
X131966245Y-54421864D01*
X131437337Y-56464467D01*
X131093199Y-56464467D01*
G37*
G36*
X132357522Y-56464467D02*
G01*
X132357522Y-56235000D01*
X132911587Y-56235000D01*
X132911587Y-54640095D01*
X132357522Y-55054208D01*
X132357522Y-54766002D01*
X132819263Y-54421864D01*
X133163401Y-54421864D01*
X133163401Y-56235000D01*
X133616594Y-56235000D01*
X133616594Y-56464467D01*
X132357522Y-56464467D01*
G37*
G36*
X192117285Y-54869560D02*
G01*
X192111667Y-55219315D01*
X192114476Y-55219315D01*
X192139975Y-55126131D01*
X192184874Y-55048784D01*
X192250153Y-54984354D01*
X192329810Y-54937248D01*
X192424223Y-54907904D01*
X192537016Y-54897526D01*
X192650733Y-54907824D01*
X192748278Y-54937229D01*
X192832751Y-54984831D01*
X192906311Y-55051521D01*
X192964204Y-55131760D01*
X193006867Y-55226464D01*
X193033864Y-55338413D01*
X193043454Y-55471130D01*
X193043454Y-55921636D01*
X193033901Y-56052880D01*
X193006963Y-56163962D01*
X192964309Y-56258292D01*
X192906311Y-56338558D01*
X192832759Y-56405190D01*
X192748289Y-56452755D01*
X192650741Y-56482140D01*
X192537016Y-56492431D01*
X192424141Y-56482181D01*
X192330212Y-56453286D01*
X192251496Y-56407068D01*
X192187601Y-56343416D01*
X192144035Y-56265724D01*
X192120094Y-56170641D01*
X192117285Y-56170641D01*
X192117285Y-56464466D01*
X191865470Y-56464466D01*
X191865470Y-55485174D01*
X192117285Y-55485174D01*
X192117285Y-55904905D01*
X192128427Y-56017105D01*
X192159293Y-56105839D01*
X192208143Y-56176259D01*
X192274441Y-56229882D01*
X192354680Y-56262637D01*
X192452997Y-56274200D01*
X192556154Y-56263904D01*
X192637555Y-56235402D01*
X192702002Y-56190303D01*
X192749016Y-56128171D01*
X192779983Y-56040573D01*
X192791639Y-55918827D01*
X192791639Y-55471130D01*
X192779886Y-55347459D01*
X192748843Y-55259620D01*
X192702002Y-55198311D01*
X192637660Y-55153986D01*
X192556260Y-55125910D01*
X192452997Y-55115756D01*
X192354680Y-55127320D01*
X192274441Y-55160075D01*
X192208143Y-55213698D01*
X192159298Y-55284120D01*
X192128430Y-55372891D01*
X192117285Y-55485174D01*
X191865470Y-55485174D01*
X191865470Y-54421863D01*
X192117285Y-54421863D01*
X192117285Y-54869560D01*
G37*
G36*
X193784487Y-56968094D02*
G01*
X194011144Y-56369333D01*
X193437540Y-54925491D01*
X193709015Y-54925491D01*
X194072693Y-55876817D01*
X194114703Y-55994420D01*
X194142669Y-56100666D01*
X194170634Y-55994420D01*
X194209835Y-55876817D01*
X194548356Y-54925491D01*
X194814214Y-54925491D01*
X194047536Y-56968094D01*
X193784487Y-56968094D01*
G37*
G36*
X196900781Y-56464466D02*
G01*
X196900781Y-54421863D01*
X197152595Y-54421863D01*
X197152595Y-55300526D01*
X197454724Y-55300526D01*
X197908039Y-54421863D01*
X198182323Y-54421863D01*
X197675886Y-55406772D01*
X198210289Y-56464466D01*
X197922082Y-56464466D01*
X197446420Y-55521566D01*
X197152595Y-55521566D01*
X197152595Y-56464466D01*
X196900781Y-56464466D01*
G37*
G36*
X199280669Y-54906105D02*
G01*
X199385745Y-54930703D01*
X199478764Y-54970310D01*
X199562944Y-55025683D01*
X199632940Y-55093436D01*
X199690034Y-55174619D01*
X199731174Y-55265040D01*
X199756709Y-55367738D01*
X199765627Y-55485174D01*
X199765627Y-55759336D01*
X198803066Y-55759336D01*
X198803066Y-55904905D01*
X198814848Y-56014683D01*
X198847869Y-56103111D01*
X198901008Y-56174916D01*
X198971841Y-56229174D01*
X199057193Y-56262449D01*
X199161249Y-56274200D01*
X199253146Y-56267511D01*
X199329093Y-56248847D01*
X199391936Y-56219612D01*
X199445851Y-56177833D01*
X199481947Y-56129315D01*
X199502578Y-56072700D01*
X199754392Y-56072700D01*
X199733013Y-56164920D01*
X199695151Y-56245508D01*
X199640416Y-56316512D01*
X199566936Y-56379103D01*
X199453692Y-56440464D01*
X199320036Y-56478851D01*
X199161249Y-56492431D01*
X199027338Y-56481397D01*
X198911754Y-56449904D01*
X198811225Y-56399175D01*
X198723321Y-56328789D01*
X198652436Y-56242130D01*
X198600803Y-56140105D01*
X198568362Y-56019682D01*
X198556870Y-55876817D01*
X198556870Y-55513140D01*
X198559120Y-55485174D01*
X198803066Y-55485174D01*
X198803066Y-55563454D01*
X199519309Y-55563454D01*
X199519309Y-55485174D01*
X199507702Y-55367455D01*
X199475756Y-55275683D01*
X199425519Y-55204050D01*
X199357100Y-55150271D01*
X199270781Y-55116708D01*
X199161249Y-55104643D01*
X199051631Y-55116708D01*
X198965229Y-55150272D01*
X198896734Y-55204050D01*
X198846567Y-55275673D01*
X198814660Y-55367445D01*
X198803066Y-55485174D01*
X198559120Y-55485174D01*
X198568363Y-55370273D01*
X198600807Y-55249873D01*
X198652440Y-55147890D01*
X198723321Y-55061290D01*
X198811232Y-54990846D01*
X198911764Y-54940081D01*
X199027346Y-54908567D01*
X199161249Y-54897526D01*
X199280669Y-54906105D01*
G37*
G36*
X200674577Y-56464466D02*
G01*
X200151287Y-54925491D01*
X200422763Y-54925491D01*
X200758475Y-55960837D01*
X200811597Y-56138523D01*
X200845181Y-56271392D01*
X200878764Y-56138523D01*
X200926392Y-55960837D01*
X201262103Y-54925491D01*
X201527962Y-54925491D01*
X201004671Y-56464466D01*
X200674577Y-56464466D01*
G37*
G36*
X201916552Y-56464466D02*
G01*
X201916552Y-56234999D01*
X202462069Y-56234999D01*
X202462069Y-55154957D01*
X201972484Y-55154957D01*
X201972484Y-54925491D01*
X202713883Y-54925491D01*
X202713883Y-56234999D01*
X203231556Y-56234999D01*
X203231556Y-56464466D01*
X201916552Y-56464466D01*
G37*
G36*
X202560010Y-54648520D02*
G01*
X202475049Y-54635830D01*
X202414563Y-54601015D01*
X202375170Y-54546099D01*
X202361440Y-54472299D01*
X202375251Y-54395732D01*
X202414563Y-54339308D01*
X202475177Y-54303374D01*
X202560010Y-54290338D01*
X202644843Y-54303374D01*
X202705457Y-54339308D01*
X202744864Y-54395742D01*
X202758701Y-54472299D01*
X202744944Y-54546088D01*
X202705457Y-54601015D01*
X202644971Y-54635830D01*
X202560010Y-54648520D01*
G37*
G36*
X203614528Y-56464466D02*
G01*
X203614528Y-54925491D01*
X203866343Y-54925491D01*
X203866343Y-55219315D01*
X203869152Y-55219315D01*
X203892769Y-55121996D01*
X203934707Y-55043994D01*
X203995059Y-54981545D01*
X204070217Y-54936407D01*
X204162915Y-54907805D01*
X204277648Y-54897526D01*
X204392141Y-54907203D01*
X204489958Y-54934723D01*
X204574149Y-54978945D01*
X204646943Y-55040285D01*
X204705231Y-55115302D01*
X204747817Y-55203321D01*
X204774602Y-55306867D01*
X204784085Y-55429242D01*
X204784085Y-56464466D01*
X204532271Y-56464466D01*
X204532271Y-55473939D01*
X204521253Y-55359667D01*
X204491121Y-55271693D01*
X204444099Y-55204050D01*
X204379962Y-55152856D01*
X204301611Y-55121410D01*
X204204863Y-55110261D01*
X204104663Y-55121896D01*
X204023562Y-55154718D01*
X203957201Y-55208202D01*
X203908595Y-55278655D01*
X203877613Y-55369069D01*
X203866343Y-55485174D01*
X203866343Y-56464466D01*
X203614528Y-56464466D01*
G37*
X164238095Y-55907419D02*
X164809523Y-55907419D01*
X164523809Y-56907419D02*
X164523809Y-55907419D01*
X165142857Y-56907419D02*
X165142857Y-55907419D01*
X165142857Y-55907419D02*
X165523809Y-55907419D01*
X165523809Y-55907419D02*
X165619047Y-55955038D01*
X165619047Y-55955038D02*
X165666666Y-56002657D01*
X165666666Y-56002657D02*
X165714285Y-56097895D01*
X165714285Y-56097895D02*
X165714285Y-56240752D01*
X165714285Y-56240752D02*
X165666666Y-56335990D01*
X165666666Y-56335990D02*
X165619047Y-56383609D01*
X165619047Y-56383609D02*
X165523809Y-56431228D01*
X165523809Y-56431228D02*
X165142857Y-56431228D01*
X166095238Y-56002657D02*
X166142857Y-55955038D01*
X166142857Y-55955038D02*
X166238095Y-55907419D01*
X166238095Y-55907419D02*
X166476190Y-55907419D01*
X166476190Y-55907419D02*
X166571428Y-55955038D01*
X166571428Y-55955038D02*
X166619047Y-56002657D01*
X166619047Y-56002657D02*
X166666666Y-56097895D01*
X166666666Y-56097895D02*
X166666666Y-56193133D01*
X166666666Y-56193133D02*
X166619047Y-56335990D01*
X166619047Y-56335990D02*
X166047619Y-56907419D01*
X166047619Y-56907419D02*
X166666666Y-56907419D01*
D11*
X145914819Y-87664285D02*
X144914819Y-87664285D01*
X144914819Y-87664285D02*
X144914819Y-87426190D01*
X144914819Y-87426190D02*
X144962438Y-87283333D01*
X144962438Y-87283333D02*
X145057676Y-87188095D01*
X145057676Y-87188095D02*
X145152914Y-87140476D01*
X145152914Y-87140476D02*
X145343390Y-87092857D01*
X145343390Y-87092857D02*
X145486247Y-87092857D01*
X145486247Y-87092857D02*
X145676723Y-87140476D01*
X145676723Y-87140476D02*
X145771961Y-87188095D01*
X145771961Y-87188095D02*
X145867200Y-87283333D01*
X145867200Y-87283333D02*
X145914819Y-87426190D01*
X145914819Y-87426190D02*
X145914819Y-87664285D01*
X145867200Y-86711904D02*
X145914819Y-86569047D01*
X145914819Y-86569047D02*
X145914819Y-86330952D01*
X145914819Y-86330952D02*
X145867200Y-86235714D01*
X145867200Y-86235714D02*
X145819580Y-86188095D01*
X145819580Y-86188095D02*
X145724342Y-86140476D01*
X145724342Y-86140476D02*
X145629104Y-86140476D01*
X145629104Y-86140476D02*
X145533866Y-86188095D01*
X145533866Y-86188095D02*
X145486247Y-86235714D01*
X145486247Y-86235714D02*
X145438628Y-86330952D01*
X145438628Y-86330952D02*
X145391009Y-86521428D01*
X145391009Y-86521428D02*
X145343390Y-86616666D01*
X145343390Y-86616666D02*
X145295771Y-86664285D01*
X145295771Y-86664285D02*
X145200533Y-86711904D01*
X145200533Y-86711904D02*
X145105295Y-86711904D01*
X145105295Y-86711904D02*
X145010057Y-86664285D01*
X145010057Y-86664285D02*
X144962438Y-86616666D01*
X144962438Y-86616666D02*
X144914819Y-86521428D01*
X144914819Y-86521428D02*
X144914819Y-86283333D01*
X144914819Y-86283333D02*
X144962438Y-86140476D01*
X145914819Y-85188095D02*
X145914819Y-85759523D01*
X145914819Y-85473809D02*
X144914819Y-85473809D01*
X144914819Y-85473809D02*
X145057676Y-85569047D01*
X145057676Y-85569047D02*
X145152914Y-85664285D01*
X145152914Y-85664285D02*
X145200533Y-85759523D01*
D10*
X132738095Y-91957419D02*
X133309523Y-91957419D01*
X133023809Y-92957419D02*
X133023809Y-91957419D01*
X133642857Y-92957419D02*
X133642857Y-91957419D01*
X133642857Y-91957419D02*
X134023809Y-91957419D01*
X134023809Y-91957419D02*
X134119047Y-92005038D01*
X134119047Y-92005038D02*
X134166666Y-92052657D01*
X134166666Y-92052657D02*
X134214285Y-92147895D01*
X134214285Y-92147895D02*
X134214285Y-92290752D01*
X134214285Y-92290752D02*
X134166666Y-92385990D01*
X134166666Y-92385990D02*
X134119047Y-92433609D01*
X134119047Y-92433609D02*
X134023809Y-92481228D01*
X134023809Y-92481228D02*
X133642857Y-92481228D01*
X134547619Y-91957419D02*
X135166666Y-91957419D01*
X135166666Y-91957419D02*
X134833333Y-92338371D01*
X134833333Y-92338371D02*
X134976190Y-92338371D01*
X134976190Y-92338371D02*
X135071428Y-92385990D01*
X135071428Y-92385990D02*
X135119047Y-92433609D01*
X135119047Y-92433609D02*
X135166666Y-92528847D01*
X135166666Y-92528847D02*
X135166666Y-92766942D01*
X135166666Y-92766942D02*
X135119047Y-92862180D01*
X135119047Y-92862180D02*
X135071428Y-92909800D01*
X135071428Y-92909800D02*
X134976190Y-92957419D01*
X134976190Y-92957419D02*
X134690476Y-92957419D01*
X134690476Y-92957419D02*
X134595238Y-92909800D01*
X134595238Y-92909800D02*
X134547619Y-92862180D01*
X153738095Y-91957419D02*
X154309523Y-91957419D01*
X154023809Y-92957419D02*
X154023809Y-91957419D01*
X154642857Y-92957419D02*
X154642857Y-91957419D01*
X154642857Y-91957419D02*
X155023809Y-91957419D01*
X155023809Y-91957419D02*
X155119047Y-92005038D01*
X155119047Y-92005038D02*
X155166666Y-92052657D01*
X155166666Y-92052657D02*
X155214285Y-92147895D01*
X155214285Y-92147895D02*
X155214285Y-92290752D01*
X155214285Y-92290752D02*
X155166666Y-92385990D01*
X155166666Y-92385990D02*
X155119047Y-92433609D01*
X155119047Y-92433609D02*
X155023809Y-92481228D01*
X155023809Y-92481228D02*
X154642857Y-92481228D01*
X156071428Y-92290752D02*
X156071428Y-92957419D01*
X155833333Y-91909800D02*
X155595238Y-92624085D01*
X155595238Y-92624085D02*
X156214285Y-92624085D01*
X185238095Y-56957419D02*
X185809523Y-56957419D01*
X185523809Y-57957419D02*
X185523809Y-56957419D01*
X186142857Y-57957419D02*
X186142857Y-56957419D01*
X186142857Y-56957419D02*
X186523809Y-56957419D01*
X186523809Y-56957419D02*
X186619047Y-57005038D01*
X186619047Y-57005038D02*
X186666666Y-57052657D01*
X186666666Y-57052657D02*
X186714285Y-57147895D01*
X186714285Y-57147895D02*
X186714285Y-57290752D01*
X186714285Y-57290752D02*
X186666666Y-57385990D01*
X186666666Y-57385990D02*
X186619047Y-57433609D01*
X186619047Y-57433609D02*
X186523809Y-57481228D01*
X186523809Y-57481228D02*
X186142857Y-57481228D01*
X187619047Y-56957419D02*
X187142857Y-56957419D01*
X187142857Y-56957419D02*
X187095238Y-57433609D01*
X187095238Y-57433609D02*
X187142857Y-57385990D01*
X187142857Y-57385990D02*
X187238095Y-57338371D01*
X187238095Y-57338371D02*
X187476190Y-57338371D01*
X187476190Y-57338371D02*
X187571428Y-57385990D01*
X187571428Y-57385990D02*
X187619047Y-57433609D01*
X187619047Y-57433609D02*
X187666666Y-57528847D01*
X187666666Y-57528847D02*
X187666666Y-57766942D01*
X187666666Y-57766942D02*
X187619047Y-57862180D01*
X187619047Y-57862180D02*
X187571428Y-57909800D01*
X187571428Y-57909800D02*
X187476190Y-57957419D01*
X187476190Y-57957419D02*
X187238095Y-57957419D01*
X187238095Y-57957419D02*
X187142857Y-57909800D01*
X187142857Y-57909800D02*
X187095238Y-57862180D01*
X143238095Y-55957419D02*
X143809523Y-55957419D01*
X143523809Y-56957419D02*
X143523809Y-55957419D01*
X144142857Y-56957419D02*
X144142857Y-55957419D01*
X144142857Y-55957419D02*
X144523809Y-55957419D01*
X144523809Y-55957419D02*
X144619047Y-56005038D01*
X144619047Y-56005038D02*
X144666666Y-56052657D01*
X144666666Y-56052657D02*
X144714285Y-56147895D01*
X144714285Y-56147895D02*
X144714285Y-56290752D01*
X144714285Y-56290752D02*
X144666666Y-56385990D01*
X144666666Y-56385990D02*
X144619047Y-56433609D01*
X144619047Y-56433609D02*
X144523809Y-56481228D01*
X144523809Y-56481228D02*
X144142857Y-56481228D01*
X145666666Y-56957419D02*
X145095238Y-56957419D01*
X145380952Y-56957419D02*
X145380952Y-55957419D01*
X145380952Y-55957419D02*
X145285714Y-56100276D01*
X145285714Y-56100276D02*
X145190476Y-56195514D01*
X145190476Y-56195514D02*
X145095238Y-56243133D01*
X174738095Y-92957419D02*
X175309523Y-92957419D01*
X175023809Y-93957419D02*
X175023809Y-92957419D01*
X175642857Y-93957419D02*
X175642857Y-92957419D01*
X175642857Y-92957419D02*
X176023809Y-92957419D01*
X176023809Y-92957419D02*
X176119047Y-93005038D01*
X176119047Y-93005038D02*
X176166666Y-93052657D01*
X176166666Y-93052657D02*
X176214285Y-93147895D01*
X176214285Y-93147895D02*
X176214285Y-93290752D01*
X176214285Y-93290752D02*
X176166666Y-93385990D01*
X176166666Y-93385990D02*
X176119047Y-93433609D01*
X176119047Y-93433609D02*
X176023809Y-93481228D01*
X176023809Y-93481228D02*
X175642857Y-93481228D01*
X176547619Y-92957419D02*
X177214285Y-92957419D01*
X177214285Y-92957419D02*
X176785714Y-93957419D01*
X195738095Y-92957419D02*
X196309523Y-92957419D01*
X196023809Y-93957419D02*
X196023809Y-92957419D01*
X196642857Y-93957419D02*
X196642857Y-92957419D01*
X196642857Y-92957419D02*
X197023809Y-92957419D01*
X197023809Y-92957419D02*
X197119047Y-93005038D01*
X197119047Y-93005038D02*
X197166666Y-93052657D01*
X197166666Y-93052657D02*
X197214285Y-93147895D01*
X197214285Y-93147895D02*
X197214285Y-93290752D01*
X197214285Y-93290752D02*
X197166666Y-93385990D01*
X197166666Y-93385990D02*
X197119047Y-93433609D01*
X197119047Y-93433609D02*
X197023809Y-93481228D01*
X197023809Y-93481228D02*
X196642857Y-93481228D01*
X198071428Y-92957419D02*
X197880952Y-92957419D01*
X197880952Y-92957419D02*
X197785714Y-93005038D01*
X197785714Y-93005038D02*
X197738095Y-93052657D01*
X197738095Y-93052657D02*
X197642857Y-93195514D01*
X197642857Y-93195514D02*
X197595238Y-93385990D01*
X197595238Y-93385990D02*
X197595238Y-93766942D01*
X197595238Y-93766942D02*
X197642857Y-93862180D01*
X197642857Y-93862180D02*
X197690476Y-93909800D01*
X197690476Y-93909800D02*
X197785714Y-93957419D01*
X197785714Y-93957419D02*
X197976190Y-93957419D01*
X197976190Y-93957419D02*
X198071428Y-93909800D01*
X198071428Y-93909800D02*
X198119047Y-93862180D01*
X198119047Y-93862180D02*
X198166666Y-93766942D01*
X198166666Y-93766942D02*
X198166666Y-93528847D01*
X198166666Y-93528847D02*
X198119047Y-93433609D01*
X198119047Y-93433609D02*
X198071428Y-93385990D01*
X198071428Y-93385990D02*
X197976190Y-93338371D01*
X197976190Y-93338371D02*
X197785714Y-93338371D01*
X197785714Y-93338371D02*
X197690476Y-93385990D01*
X197690476Y-93385990D02*
X197642857Y-93433609D01*
X197642857Y-93433609D02*
X197595238Y-93528847D01*
D11*
X119886904Y-85795180D02*
X119886904Y-84985657D01*
X119886904Y-84985657D02*
X119839285Y-84890419D01*
X119839285Y-84890419D02*
X119791666Y-84842800D01*
X119791666Y-84842800D02*
X119696428Y-84795180D01*
X119696428Y-84795180D02*
X119505952Y-84795180D01*
X119505952Y-84795180D02*
X119410714Y-84842800D01*
X119410714Y-84842800D02*
X119363095Y-84890419D01*
X119363095Y-84890419D02*
X119315476Y-84985657D01*
X119315476Y-84985657D02*
X119315476Y-85795180D01*
X118315476Y-84795180D02*
X118886904Y-84795180D01*
X118601190Y-84795180D02*
X118601190Y-85795180D01*
X118601190Y-85795180D02*
X118696428Y-85652323D01*
X118696428Y-85652323D02*
X118791666Y-85557085D01*
X118791666Y-85557085D02*
X118886904Y-85509466D01*
D12*
%TO.C,U1*%
X107049000Y-78991272D02*
X107049000Y-70996000D01*
X107549000Y-70496000D02*
X108459000Y-70496000D01*
D10*
X108459000Y-68015000D02*
X108459000Y-81985000D01*
D12*
X108459000Y-68015000D02*
X108459000Y-81985000D01*
X108459000Y-79495000D02*
X107548728Y-79491272D01*
X127509000Y-66110000D02*
X110364000Y-66110000D01*
X127509000Y-83890000D02*
X110364000Y-83890000D01*
X129414000Y-81985000D02*
X129414000Y-68015000D01*
X107049000Y-70996000D02*
G75*
G02*
X107549000Y-70496000I500000J0D01*
G01*
X107548728Y-79491272D02*
G75*
G02*
X107049028Y-78991272I272J499972D01*
G01*
X108459000Y-68015000D02*
G75*
G02*
X110364000Y-66110000I1905000J0D01*
G01*
X110364000Y-83890000D02*
G75*
G02*
X108459000Y-81985000I0J1905000D01*
G01*
X127509000Y-66110000D02*
G75*
G02*
X129414000Y-68015000I-1J-1905001D01*
G01*
X129414000Y-81985000D02*
G75*
G02*
X127509000Y-83890000I-1905001J1D01*
G01*
D13*
X108952000Y-83950000D02*
G75*
G02*
X108448000Y-83950000I-252000J0D01*
G01*
X108448000Y-83950000D02*
G75*
G02*
X108952000Y-83950000I252000J0D01*
G01*
X109832000Y-82807000D02*
G75*
G02*
X109328000Y-82807000I-252000J0D01*
G01*
X109328000Y-82807000D02*
G75*
G02*
X109832000Y-82807000I252000J0D01*
G01*
%TD*%
M02*
